<svg width="100%" height="100%" viewBox="0 0 128.3 128.3" xmlns="http://www.w3.org/2000/svg">
    <g clip-rule="evenodd" fill-rule="evenodd">
        <path d="m29 63.5c18.7-8.2 31.2-13.5 37.5-16.1 17.8-7.4 21.5-8.7 23.9-8.8.5 0 1.7.1 2.5.7.6.5.8 1.2.9 1.7s.2 1.6.1 2.5c-1 10.1-5.1 34.8-7.3 46.1-.9 4.8-2.7 6.4-4.4 6.6-3.7.3-6.6-2.5-10.2-4.8-5.6-3.7-8.8-6-14.3-9.6-6.3-4.2-2.2-6.5 1.4-10.2.9-1 17.4-15.9 17.7-17.3 0-.2.1-.8-.3-1.1s-.9-.2-1.3-.1c-.6.1-9.6 6.1-27.1 17.9-2.6 1.8-4.9 2.6-7 2.6-2.3 0-6.7-1.3-10-2.4-4-1.3-7.2-2-6.9-4.2.2-1.1 1.8-2.3 4.8-3.5z"
              fill="#000"/>
        <circle cx="64.2" cy="64.2" r="63" fill="transparent"/>
    </g>
</svg>