<svg height="100%" width="100%" viewBox="0 0 48 48" xmlns="http://www.w3.org/2000/svg">
    <path d="M13 15H9.5c-1 0-1.2.47-1.2.99 0 .927 1.186 5.525 5.525 11.606C16.717 31.749 20.792 34 24.5 34c2.225 0 2.5-.5 2.5-1.361V29.5c0-1 .21-1.2.915-1.2.52 0 1.41.26 3.486 2.262C33.774 32.935 34.165 34 35.5 34H39c1 0 1.5-.5 1.211-1.487-.315-.983-1.448-2.41-2.952-4.101-.816-.964-2.04-2.003-2.41-2.522-.52-.667-.37-.964 0-1.557 0 0 4.264-6.007 4.71-8.046.222-.742 0-1.287-1.06-1.287H35c-.89 0-1.3.47-1.522.99 0 0-1.78 4.338-4.301 7.156-.816.816-1.187 1.076-1.632 1.076-.222 0-.544-.26-.544-1.001v-6.934c0-.89-.259-1.287-1-1.287h-5.5c-.556 0-.89.413-.89.805 0 .843 1.26 1.038 1.39 3.41v5.155c0 1.13-.204 1.335-.65 1.335-1.186 0-4.072-4.358-5.784-9.344C14.231 15.39 13.894 15 13 15z"
          fill="#000000" fill-rule="evenodd" clip-rule="evenodd" style="transform: scale(0.8) translate(12.5%, 12.5%)"/>
</svg>