<svg width="100%" height="100%" viewBox="0 0 512 512" xmlns="http://www.w3.org/2000/svg">
    <path d="m328.207 83.25c-16.703 16.638-31.652 32.087-33.221 34.333s-3.782 6.844-4.919 10.218c-1.906 5.657-2.067 8.46-2.067 35.923v29.787l-35.602 35.494c-23.38 23.309-36.247 36.868-37.479 39.495-3.72 7.935-1.665 18.724 4.705 24.697 6.21 5.823 16.254 7.457 23.876 3.884 2.627-1.232 16.186-14.099 39.495-37.479l35.494-35.602h29.787c27.463 0 30.266-.161 35.923-2.067 3.374-1.137 8.197-3.468 10.718-5.18 5.287-3.591 56.902-54.319 61.206-60.153 3.236-4.387 3.633-8.238 1.311-12.728-2.925-5.656-4.612-5.872-45.902-5.872h-37.532v-37.532c0-41.29-.216-42.977-5.872-45.902-1.666-.861-4.496-1.566-6.29-1.566-2.942 0-6.247 2.973-33.631 30.25m-116.207 3.21c-20.079 2.642-35.395 6.744-52.357 14.022-67.034 28.762-111.791 91.722-116.562 163.966-3.71 56.183 16.024 108.691 55.862 148.638 33.014 33.105 76.436 52.828 123.006 55.874 94.988 6.212 179.696-57.601 200.391-150.96 5.263-23.74 5.995-52.545 1.568-61.69-6.26-12.932-22.44-16.148-33.044-6.569-6.738 6.088-7.194 7.705-7.399 26.259-.217 19.56-2.097 31.689-7.446 48.028-7.567 23.116-18.351 40.433-36.455 58.536-22.903 22.904-48.385 36.141-80.064 41.592-10.149 1.746-14.7 1.983-29.5 1.539-19.06-.573-26.431-1.817-42.644-7.2-37.155-12.337-68.197-39.334-86.011-74.804-10.011-19.933-14.316-37.592-15.04-61.691-.442-14.743-.203-19.392 1.522-29.506 5.373-31.509 18.699-57.149 41.609-80.058 17.086-17.087 33.962-27.935 55.012-35.362 17.738-6.259 40.968-9.805 56.172-8.574 5.342.433 9.515.24 12.194-.562 19.315-5.787 20.442-32.668 1.698-40.498-5.472-2.285-28.546-2.817-42.512-.98m-9.5 88.941c-35.48 11.714-61.575 39.331-71.238 75.393-2.282 8.515-2.61 11.731-2.673 26.206-.062 14.287.245 17.707 2.291 25.5 10.992 41.868 43.164 72.243 84.808 80.068 12.873 2.419 34.583 1.545 46.812-1.886 35.111-9.849 62.07-35.298 73.443-69.33 3.791-11.344 3.847-15.435.307-22.416-5.171-10.198-16.197-14.519-26.758-10.486-5.874 2.243-11.897 9.106-13.434 15.308-3.257 13.141-14.617 28.772-26.773 36.841-12.954 8.598-32.022 12.235-47.285 9.019-48.578-10.235-67.446-69.097-33.725-105.205 8.072-8.644 16.775-14.184 27.996-17.823 9.47-3.071 13.941-6.331 16.809-12.256 6.93-14.315-3.64-31.453-19.298-31.289-2.355.024-7.432 1.084-11.282 2.356"
          fill="#3c6ce4" fill-rule="evenodd"/>
</svg>