<svg xmlns="http://www.w3.org/2000/svg" fill="none" width="100%" height="100%" viewBox="-5 -5 110 110">
    <!-- Окружность -->
    <g transform="translate(50, 50) rotate(-72) scale(-1, 1)" pointer-events="none">
        <path d="M 0,-50 a 50,50 0 1,0 0,100 a 50,50 0 1,0 0,-100" class="circle" fill="none" stroke="white"/>
    </g>
    <g transform="translate(50, 50) scale(-1, 1)" pointer-events="none">
        <path d="M 0,-50 a 50,50 0 1,0 0,100 a 50,50 0 1,0 0,-100" class="animated-circle" fill="none" stroke="white"
              stroke-width="var(--path-width)"/>
    </g>

    <circle cx="50" cy="0" r="2" class="dot" fill="currentColor" stroke="white"/>
    <circle cx="97.55" cy="34.55" r="2" class="dot" fill="currentColor" stroke="white"/>
    <circle cx="79.39" cy="90.45" r="2" class="dot" fill="currentColor" stroke="white"/>
    <circle cx="20.61" cy="90.45" r="2" class="dot" fill="currentColor" stroke="white"/>
    <circle cx="2.45" cy="34.55" r="2" class="dot" fill="currentColor" stroke="white"/>

    <circle cx="-5" cy="-5" r="1.5" class="selected-dot" fill="white" transform="translate(55,5) scale(1)" pointer-events="none"/>
</svg>