<svg viewBox="0 0 680 430" xmlns="http://www.w3.org/2000/svg">
    <g fill="none" stroke="red" stroke-width=".4"><path d="m259.3 228.5.1.3-.3.1-.3-.6z"/><path d="m528.3 76.6 1.7 1.1-.2 1.1-3.2 3.2-1.4-2 2.1-3.6zm-8.9-42.2 1.4 4.5-.8 2.1 1.1 1.1.6 2.6-2.2.7-1.9-1-3.3-4.2.4-4.2 2.8-3zm4 65.4 1.2-4.4-.5-1 2.6-2.1.5-2.9 1.9-4-1.9-3.4 2.3-1.1 3 .5 2-3.2 3.2-.6v-2.6l-1.3-2.1-2.9-.6-2.9.7-1.6 1.9v-2.2l-3.2-.6 1.8-4.4.7-2.6 1.2-1.2-.8-1 .8-1.8.7-5.1 2.6-6 1.8-2.9-.4-.5 2.1-3.1 2.6-2.4 2.3-4.2 2-.6 1.7-3.6 2.8-3.7 1.3-1 .6-2.5 1.2-2.1 3-.7-.3-1.3 3.1.1 2.5-1.1 1 1 1.1-2.2 2.3-.1-1.9-1.6-.8 1.1-1.1-1.2-2.7.6-.8 1.4-.4-4.2 1.3-2.5-1.3.5.2-4 2.3-1.8 4.2-5.5-.2-1.8 1.2-.1.3 1.7 1.5 1.2 2.4-.3-.4 2.6 1.7.2.5 3.7-1.3 1.1 5.7-2 2.4 2.5 1.7-.4-1.8-.9.5-1.8.9 2 2.4-1.7 1.1 2.4.3 3.3-4 5.2.6 2.9-2 2-1.2-.4-2.5.9-1.7 4.5 1.7 1.7.1 3.5-.6 1.1-5.1 1.9.6-1-1.5-.9-2 .5 1.8.6.7 4 3-.2 1.4-1.9 4.6 1.6 1.2 2.3 1.8 1.3 1.4 5.3-.9 2.4-1.7.8-1.3 2.1 2.1-1.5-1.1 5.3 3.4-2.7-1.2-1.2-.4-2.2 3.2.3 2.1-2.2-1.3-1.3 3.8-1.5 3.1-.4 2 .8 1.9-3.1 2.1.3 2.7-1.6 1.7 1 1.4 2.1-1.7 4-.6 3.4-2.1-.2 1 1.8 1.2-1.3.6 2.5 1.5 2 1.6 4.7 2.4 4.2-1.5-.2-1 1.5-3.5-.2-1.1 2.6 1.1 1.6-.6 3.9-.7 1.1 1 2.8-.7 1.2.9 1.8-.8 2.6-3.8 1.3-3.5 2.7-1.7 2.7-3.2-4-.9-1.9-3 .5-1 1.9-3.1 1-.9 3.3-3 1.4.4 2-1.3 2.3.1 1.5-1.9.3-1.5 2.5 1.3.4-3 2.6-.9 2.8 1 2 1 .9-3.3 4.3-3.4 1.1-1.2 2.8-3 .6-4.4 3.8-3.9-2.6-2.1 1.9-1.2-.2-2.1-2.7-2.5-.1-4 2.2-3-1.3.3-2-1.1.5-1.8-1.5.3-6 1.2-4-.5-1.7 2-3.2-2.3-1.9-2-.2-.3-1-2.6.4-.5-1.1-3.6.6z"/><path d="m229.5 183.1-.3 2.8-1.6 1 .6-2-.7-1.8zm55.2-65.1-1.4-3 1.8.6-.5 2 2.4 1.3-1.6 2.3-1.6-1.4zm-2.1-1.1-2.5-.7v-1.2l1.6-.3zm5.3 6.1 2.5-.1-2.3 1.6-1.7-3.4 1.1-3.3 2 1.4.5 1.9-2.1-.5zm3.7-8.8 1.1.5-2.1.9-.9-3.3zm9.7 3.4-.1 3-2.2.9-2-.4-.1-1.8 2.6-.2zm-8.6-5.2-.8.8-2.1-2 .4-1.3.9 1.4.4-1.2zm-18.7-7.6 4.8 2.1-.9 2.1-.1-2.1-4.1.4zm21.1 12.7-.8-1.4 2.6.3-1.1.8.4 2.4-1 1.3-2.4 1-1.9-2.5 1.7-2.1 2.3.9zm-7.5-3.1-1.5-.3-.5-1.6h2.5v-1.7l1.2 1.7 1.1 3.4-2.9.3zm-134.5 134.5-1.3-1.7.6-.8-2.4-2.9-1.8.9-.6-3.3h-1.4l-1.2-2.3.7-1-1.3-1.4-2.2 1.5-3.1-3.9.6-.9-1.7-.9-2.6.7-1.7-1.5-.5-2.2-1.5-.3-1-3-1.7-1.2-1.5 1.1-1-3-3.5-2.3-.2-1.6-1.4-.8-.3-2.1-1.6-.6.2-2.9.4-.9-.2-.3.2-.2.1.2.4-1 2.2-2.9 3.7-2 1.9-3.5 2-1.9-1.1-1.6-.3-3.1.9-2 2.8-2.3.3-2 1.8 1.3 2.9-1.3.8 3.6 2.9 1.6 2.7-2.1v-1.7l-1.7-1.7 2.2-5.2 1.2 1 2.1-.6.6 3.2-.3 2.1 1.4 3.6.3 3.2h1.8l2 1.1 1.2-.8 1.6-5 1.8-.8 2.1.6h3.2l2 1.2 3 .1 5.2-.9-2.4 1-.4 1.3 2.3 1.7-.3 4.6 2.7-1.6 2 6.5 1.5 2 .9 3.5 1.5 1.6 3.5-.9 2.5 2.3-5.3 6 2 1.4-.9 4.2.7 1.8-2.3 1.5-1.6-2.3-1.4.4-1.4-1.6-3.4.4-.2-1.8-7.6-6.2-1.8-.5-.1 2.8 1.3 2.2.3 2.1-.7 2.1-1.5 1 .8 3.2-1.8.9-1.8-.2-.7 1.9-1.8 1.9-.4 1.7 1.9.2 1.9 1.6 2.8-2.6 2.3.8 2.2 2.6-4.6 3.7h-.9l-3.1 2.3.9 2-3.1 2.4-3.7-1.6zm141.1-139 .8-.4v.4zm0 0 .2 2 1.8 2.1-1.8-1-2-3.1zm-47.7 62.2-.2-.8-2.6-1 2.5-1-1.1-.8-.1-1.8 3.8.1 2.2-1.8 1.5.3.1-1.2 2.1 1-.7-2.5 2.2.7-.4-1.7 2.2.3-1.4-1.6.7-1.2.9 1.6 3-1.9 1 1.5.6-1.8 1.7.3 3.9-1.7 2.5.9.4-1 1.5 1.2.9-1.7 1.3.4 2.2 2.3 7-.6 4.2-2.1h1.5l1.6 1.2.3 1.9-.7 2-2 1.4-3.5 1.2-9.2.7-1.7-.4-4.7.3-4.8 2.6-1.8 1.4-1.3-.9-1.2 1.5-1.5-2.4-.5 3.5-1.3-.3-3.5 3.1-4.8 2.3-1.8-1.9 1 1.6-1 1.2-2.3-.5 1.4 1.1-1.2 1.2-1-.6-3.4 3.2-.1 1.1-2.3 1.5.5.7-1.1 2.6-.8 3.5.5 4.8.9 2.1-1.2.7-4-2.3-.7-2.5-1.8 1.1-.5-3.1-1-.1-1.6-2.8 1.6.2.1-1.4 2.1 1-1.2-2.7.6-1.7-3.4-2.6-.1-1.4 1.4-2.6 2.8-1.2.9 1.5 4.1-3.6-.5-1.2 1.4-.7 1.7 1.1 1.2-2.4 2.2-.1.8.9 2.5.1zm26.6-60.4 1.5-1-1.5-.3.4-1.6 2 1.6-.2-1.6 2 .1.5 1.2 1.3-.4.2-1.6 3.1-.4-.6.8.1 3-1.8.3-3.5-1.1-.9 1.7 1.6 1-1.2 1 1.5.7-.6 1.8-1.5-1.9.5-1.9-1.1-1.4zm21.9-2.2.1-.6.5-1 1.8.5z"/><path d="m208.2 195.7 1.5-1.1-4.2 1-2.8-1.7.1-2.1 2.6-2.4 2.6-.4 1.3.9.9 3.8-.3 1.2zm30 7.5.8-1.3 2.1-.3 1.5 7-.9 1.6-2.7-1.5.4-1.6-1.1-1.3zm15.5 18-2.6 1.3-.6 1.4 2.2 1.7-.9 3.5-2.6-.9-1.5 1.4-3.1.4-.1 1.4-4.9.7-1 1.6-5.7 1-5.3-2.7-4.2-2.6-16-10.7-4.2-4.2-3.3-.5-.7 1-11.6-1.5-2.5-2.3-3.5.9-1.5-1.6-.9-3.5-1.5-2-2-6.5 2.5-1 1.7-1.6.6-1.7-.7-1.9 1.1-1.1 4-2.1 3.4-2.7.1-4.8 1.2 2.2 3.3 3.4 1 2.3-.5 3.6-1.4 2.4-4.4-2.7-2.2.5-1.6 1.2.7 2.8-1.1 2.5 1.6 2.4 4.4 1.8 1.2-1.5 2.2-1.1.4-1.1 3.7 1.2 1.1-.8 3 1.1 5.6-.2.2.6 5 1-1.4 1.4 2.2.6-.4-2 4.9.1 1.3 1.8-1.9.8-1.5 3-.9-1.4-1.3.5 2 1.8 1.6-.1.8 2.3 1.4-1.5h4.4l3.6 3.4 3.5-1 3.4.4.5 2.9-1.8.6-.9 1.8 1.4 1.6 1.5-.5.4-2 2.4.8 2.3-1 .9-1.6-.8-.8.6-4.3 2 .1 1.2-1.2 5 3.8 3.8 4z"/><path d="m258.9 248.8 2.6 2-.7 1.6-1.6-1.4zm42.7-41.7-2.5-.5 2.7-2.7 1.9 1.8zm-15.9-14.4h1l-.2 3-.6-1.6-3.9.3-.5-.4 1.4-3.1 2.9-.2zm-33.9 36.4.9-3.5-2.2-1.7.6-1.4 2.6-1.3 1.9 2.2-.5.4 3.6 4.1-.4.4 2.3 5.6-.4 1.3 3.7-3.1 1.6-2.5-1.9-1-.2-3.8.6-1.4-1.8-2.2-1.7 2.1-.1-2.5 1.8-3.3 1.2.2.3-1.9 1.2-1.5 1.5-3.6-2.5-.8 3.3-3.7 3.8-.8 2.6-2.2 4.4-7.1 2.2-1.9v.9l5.4 1.6 2.9 3-1.1 4-2.6 3.2-1.2 2.2-1.3.4.1 2.4 1.1 2.2-.1 2.1-1.5 4.2-1.5 1.1-.4 4.1-1.1 1.6-.6 3.3-1.2 3.1 2.4 5.1-2.7 2-1.1 4.5-2.2.3-2.7 3.7-3.4 1.8-.5 2-3.7.2-2.2-3.8-3.2-1.2-.1 1.9 3.7 4.2 3 .8 2.8 2.2 1.8-.5 1.2-2.3 4.3-.7 1.9-1.3.8-2.6 4.1-2.7.9-2.2.2-2.3-.8-2.3 1.2-2.6 3-1 4.3-.1.5 2.4 1.8 2.7-1.1 2.1.6.6-1.8 4.1 2.9 2.8 3.6.1-3.1-1.1-2.1-1.3.9-3.5 2.6-.8-1-3.6.5-2.4-2.4-1.8-.3-1.2-3.9-2.3-1.7 1.1-4.4-2 1.1-1.9-.4-3.4 1.9-3.8 2.7-2.5-.4-7.4-1.1-1.9 2-1.8.6-1.5 4.7-1.4 1.2-2.1.5-3.1-1.6-4 1.9-.1-.6 2.5 1-.2.9 3.4-.6 2.8-1.9 2.3-.6 2 .3 2.1-1.3 1 2 2.2 5.2 2.1.4 1.8 1.3.9.1-3.5-1.8-.6-3.5-3.5-.2-3.4 3.1-.6 1.4 2.4 1.7-.2v-2.3l-1.5.2 2.5-2.5 1.1.2.2 2 2.7 1.7 1.7 1.9-1 1.9-2.4.2-1 1.7 2 3.1 1.7 1.2v3.9l-7.3 6.2.1 1.5 1.5.8.7 3 2.9.9.7 1.1 3.4-.8-.3 1.5 1.9.4.1 3.4 1.3 1.6-2.1.6.4 2.8-1.1.9-.5 2.1-2.3-.1 1.9 4-1.3 2.6 3.4 4.5.4 1.5-1.1 1.8 1.4 2.9-1 1 .9 2.7 1.8.1 1 1.1.8 3.6-1.6 3.3 2.2.4 1.4 1.8 1.8-.6 1 .7-.2 2.4.6 2.2-.5 2.1-1.8.9-2.3 3.6 2.3 1.7-.5 3-5.9 7.7-.7-2-1.8-1.9-2.4.7-2.3-3.1-2.9-.8-1.2.9-2-1.5-.8-3-2.3.6-3.3 1.6-.8 1.6-4.6-.9-3.6.6-2.7-2.9-.8-2.7-1.6-1-1.7.4-1.7-2-4.1-.2-1.7-.6-.8-1.5-3.7-1.4-.5-2.4-2.3.8-2.1-.8-2.7.2 1-3.3-.4-1.3-1.9-.8-.5-3.4 1.4-1.3-1.4-2-1.3-.2-2.6-2.4-1.6-.4-.6 1.9-1.6-1.3-3.4 1.3-1.9-1.3-1.3-2 1.4-2.1-2.7-2.2-3-1.2-1.3.7-2.2-.9-4.6-.5-.4-2.9-2.4-1.6 1.7-.9.2-1.5 2.3-3.2-.9-.9.4-2.9-.6-1.2 3.6.2.6-1.2 4.2-2.9 7.6-.7 1.2-1.9 4.5-1.5-.3-1.8 1.1.4.8-2.5-2.2-.9.6-2.8z"/><path d="m307.8 202.3-.3 1.8-1.8-.4-.7-1.3 2-1.9zm42-34.1-.9.4.1-3 2.6-2.3v1.2l-1.6 1.4zm-9.8-29.4-.9-2.2 4.8 1.2-1.8 2.6zm53.2 48-2.6 1.5-.9-.3.5-2.6h3.7l-.6.8zm-81.4 118.5 5.9-7.7.5-3-2.3-1.7 2.3-3.6 1.8-.9.5-2.1-.6-2.2.2-2.4-1-.7-1.8.6-1.4-1.8-2.2-.4 1.6-3.3-.8-3.6-1-1.1-1.8-.1-.9-2.7 1-1-1.4-2.9 1.1-1.8-.4-1.5-3.4-4.5 1.3-2.6-1.9-4 2.3.1.5-2.1 1.1-.9-.4-2.8 2.1-.6-1.3-1.6-.1-3.4-1.9-.4.3-1.5-3.4.8-.7-1.1-2.9-.9-.7-3-1.5-.8-.1-1.5 7.3-6.2v-3.9l-1.7-1.2-2-3.1 1-1.7 2.4-.2 1-1.9-1.7-1.9-2.7-1.7-.2-2 2.6.5 5.9 7.6 3.5-.4 1.3 1.2-1.1 2.4-2.5.9-.7 2.5.4 2.2-1.3 2 1.2-.2.3-1.9 1.5-1.6 1 2-.2 3.4-2.3 1.4 1.5 1.9-.5-2.4 1.7.2 1.1-1.3-1.1-7.5 1.9-3.2-.6-2.3-1.7-.8-1.5-2 .2-1.9-2.8-1-1.1-2.1.9-3.4-.9-3.9 1.9-2.3 3.2-.3 4.1.6 3.7-.7 1.7.6.5-1 3.3-.5.9 2.8 1.3-2-1-.4-1-3.1-2-.9-.2-1.9-1.9-.6 2.1-.6.2 1.6 1.9.1-.7-1.4-1.9-.8 1.3-1.5 1.3 1 .9-1.2-1.9-.3 1.9-1.2.1 1.3 5.2-5.5 2-1.2 8.6-2.9-1.4-2 4-.7 2.3-2 2.4-.8-.1 1.8-2 .4.3 1.9 2.7-1.6 1.7.7v-1.3l1.8-1 2.6 1.1-.8-2.1-1.9-2.1 1.5.3 2.8-1.2.5-2.3-1.1-1.8 1.8-4.6 1.7-2.9 1.4-1.1 3.1 1.1 1-.5 1.3 1.5-1.8 2.3-1.6 1 3.1-.6.6 1 1.7-1.1 1.8 1-1.1 4.3 3-1.2-.4-1.9 2.8-1.2 1.8.1 2-1.4 1.2 1 2.2-.8 1.5 2.1 1-.7 2.5 4 .8-.1.5 2.5-3.4-1.2 1.4 2.1 2.2-.2.8 2.1-.5 3.2-1.3 1.8-3.5 6.8.3 1.3-1.6 2.5-1.3 4.2-2.3.9-.5 3.3-1.2.2-.6 5.6 1.5-2.5-.2-2.1 3.8-.9 1.3-1.9 2-1.4-.6-1.4 2 .1 2-3v2.9l2.2 3-.3 1.5 1.1 2.1 1.7.4.3 1.7 3.3 1.1 2.6 6.3 2.7.9-.6 2.5-2.1 2.3-2.2 1.4-.8 2 1.2 1.8-1.9 1-.5 1.9 1.2 1.3.1 2.6-3.3.3-.5 1.7-3.2 2.9h-1.5l-.5 1.8 3.9 4.1 2 6.5 1.9 7.3-3.8 4.3 2.2.6 2.1 3.5-.5 1.1.8 1.9 1.6 1.1.8 3.1 2.3.8-1.1 1.7.2 1.6-1.6 2.3 1.2 1-1.3 2.4.8 1.6 3.2-.5 6.6.1 1.7 1.2-2.5 1.3-.1 1.4-3.7-.3.6 1.4-.2 3.6 1.1.7-1.2 1.3-.5 2.2 2.6 2.9 1.5.4-1 3.7.8 1.9-1.7 2.4.5 1.3-4.4 4.5.6 1.5-.9 3.5 1.9 3.6 1.4.7 2.9-.3.6 4-1.8.3-.7 1.6 1.5 1.8.9-.3 1.7 3-2.2 3.4.8.7-1.8 1.6-3.6-1.9-1.4.2-3.8-2.9-2.5 2.1 1.2 3.8-1.4 2.3-1.9 1-.8 2.3-2 1.5.4 1.1-1.5 1.2 1.3 2.9-1 1.5-1.8-.9-3-4.5-1.7.2-1.1 2.9-2.2 1.1-1.1-.5-4.5.5-2.2 7.4 1.5.6-.6 1.3 1.7.2.9 3.5-1.4.3.1 1.8-1 1.4-1.3-.3-1.7 3.5 1.4 3.7-1.2.8-.4 2.2.8.8-.3 3.8-3-.2-2 3.3 2.5 1.4 2.9 3.1 1.1.3-1.3 1.3-1.3-.8-.7 1.6-2-.4-2.2 1.6-.8-.7-3.9 1.6-.2 3.7-2.2.9-2.1 3.6-.4 2.1-2 1-3 2.9-5.4.5-2.8-.9h-4.5l-2.3-2.4 1.4-2.5 4.2-3.8-.3-1.9 2.9-2-.6-1.5-1.7-.5-.9-2.8.8-2.2-1.9-3.9-1.8-1.2.3-1.5-2.7-.7-1.5-2.6-3.1 1.4h-2.7l-1.4-2.7-1.9-1.5 2.6-2.2 1.7-.7-1.6-4.9-2.6-1.4-.4-1.7 1.3-.6-.6-1.3.6-2.3-1.1-.1 1.9-3 2.8-1.9-.2-2.9-2.6-.1-3.6-1.5-1.1-3.9 2.5-3.5 2.3-1.1-1.2-2.5-3.3.2-1.8-3.5-1.7-.5-.5-1.9-5.6-1-2.4.4-4-.4-.7-.7 1.6-3.6-2.1-4.7 7.1-3.5 1.5-2.3-2.2-.9-4.1-2.9zm44.3-150.7.8-3.8.7-7.1 1.6-3.3 1.5 1.2-.1 4.5.5-2.3 1.4-1.4 1.9 2.4 1.4.2 1 2-.3 1.8 2.3.8 1.2-.8-.2 1.6 2.1-1 .1 1.3-2.2-.1-1-1-2.9-.1-1.5 1.3-4.8 1.7-1.8 2.6zm-13.9-11.8 2.5-3.6 1.2-3.2 4.2-1.2 1.7 2.6v-1.7l1.1-.1 1.9 2.3-.1.9v4.1h-.9l2.1 2.7-.8 1.6-3 .6-2-1.5-3.3-.2-1.4-1.8-.2-2.3-1.1-.5zm7.1-8.5-4.2 1.5-.8 1.6-4.2-2.9.5-1.7 1.3-.5.7-2.8-1.2.3.8-2.2-2.6-.7-2.1-.2.2-1.1 2 .2 2.5 1.8 2.6-1.6 1.2-1.5 2.2 3.5 1.7 1.7-1.1.7z"/><path d="m523.5 103.6 2.6 1.1 2.6.2-1.4.9-3.3-.9zm-66.6 35.6-2.8-1.2.7-1.7 2.3 1.4zm-59.7 39.9-.4 2.9-1.7.2-2.5-1.2 1.1-.5-.4-1.7 3.3-.8zm41.2-40.2-.6.8-2.9-3.7 2.4.7zm22 4.1-2.2-4.8 1.2-2.1 1.6-.7 3.5-.1 2.7 1.4-.3 1.2-3.7 3-2.1.9zm-66.9 44.4-.2-.4-.1-.2.1-.6.6-.8 3.3.4 1.1-2.4 1.9 2.3-.2 1.5 1.9 1.3.3-1.2-1.5-1 2.7-2 1.3-1.9 5.5-1.4 2.5-1.3 1.7 3.1 4.2-.2 3.5-1.1 3.1-1.9.2-1.3 1.9.1-.6-3-1.6-1-1-3.1 1.4.2-.1-2 4.4.1 1.2-1.1 1.1.8.7-2.1 2.6-1.3.6 1.3 2.8-.7 2.3.4-1.7 3.5 1.9-2.3 1.4 1.3-.1 3.1 1.1-1 2.3 1-.3 2.4-4.6-.7 12.2 5.9 5 .4.9-2.2-1.3-3.5-2.7-5.6 3.3.8 2.1-.1 2.2-1.4.2-2.3 1.4-2.7 7.2-2.1-.6-.9-3.7 1.3 2.8-4.6 2.5.4 1.3-2.4-4.3-1.7-1.2-2.2-1.2 1.6-1.7-2.8 1.9-2.3.3-1.8-3.2-.7 2.7-1.4 8.3-7.8 4-2.2-2.4 3.4-1.5.6 1.2 2.7.4-2.1 2.7-4.8 2 4.8-1.2 1.9 1.7.7.1-2.9-2.3-5.3 2.1-2.9 3.1-2.3 2.6-.1.7 1.7-1.6.2 1.1 2 1.7-2.4 1.6 1.2.7-2.3 1.9 1.1-.3-1.6 1.7-1.2 2.8-.2-.2 1.5 1.8-1.1 2.3-4-.1-2.1 1.1-5.4 3-5.8 3.4-3 1.9-.8-.5-3 1.5 2.8 3.1.2 2.9 2.5 2.8-1.2.8-1.9 4.8 1.5 1.7-1.1 3.6 2.6-3-3-2.8-.3-3.3-1.1 1-1.1-.7-2.5 1 .8 3.6-.6.5 1.1 2.6-.4.3 1 2 .2 2.3 1.9-2 3.2.5 1.7-1.2 4-.3 6 1.8 1.5 1.1-.5-.3 2 3 1.3 4-2.2 2.5.1 2.1 2.7 1.2.2 2.1 1-1.1 2.9 1.1 1.9-1 1.5-2.6.3.8 1.4-1.9 1.8-1.1 3.3-1.5.8 1 1.9h1.4l.5 1.6-1.4 1 .4 1.3 3.6 1.8-.4 3.4 2.1 1.9 2.6.2 1.6 3.6h-1.5l-.3 3.3-1.1 2.6 1.3.8-1.2 1.3-2.7-.8-1.1.6.1 2.9-1.4 2.2-1.8.6.8 2 1.4-.4 1.8 2.6-2.6.1v2l-2.9 1.9 1.2 2.8-.5 2.6 1.5.6 2.7 3.9 3.5 2 2 .5-.5 1.7 1.7.8.7 3 1 3.6-1.1 1-1.7-1.2-3 2.4.9 1.8-1.2 2h-2.6l-.2 1.2-4.6-.3-2.7 1.3.3 2.5 2.2 2-.3 1.5 2.2 4.7-1.6 3.9 1 .9-.4 1.7.8 2.1 2.1.2 2.5 3.8 3.8 2.8-2.3 2.4.5 3.5-.9 2.1-3 2.1-1.6.3-.3 2.3 1 2.5-2.7 2.3-2.4 1-2.4 2.1-1.1 3.1 1.3 1.7-.9.7 1.4 1.8-.7 2.6 1.8 1.4.8 2.1-3.2 1 3.1 1.2 2.1.1-.6 2.1 1.3 2.2-1.7 2.2 5.1.3 1.7 3.2-1.8 1.5 2.1 5.2 1.6 1.2-4.2 3.4-1.7.8-2.2 2.9 1 1.2-2.6 1.7-1.7-.2-3.1 3.5-3.1.9-1.7 2.7-2 1.1-.7-1.1-2.4 1.6-2.1-.1-1.1 1.4-2.3 1.1-1.6-1-4.3-.9-2.6 1.5-3 .3-.6 1.3-3.2-.7-2.6 1.6-2.1-1.3-2.1.7-3.2 2.2-1.4 2-1.7-.2-.6-1.3-2.8-2-1.5.4-1.2-1.3-2-4.2-1-2.1h-1.9l-.7-2.1-2.6-2.6.2-1.2-3.6-1.2-1.3 2.2-4.2.8-.3-2.1-2.8-2.4-2.4-.8-2.5.7-2.2-.1-2 2.3-1.2 2.3.3 2.3-1.2 3.7-1.6 1.8.5 2.8-3.5 3.8-.4-2.2-1.8.4-1-1.5-.6 2.5-3.3 2.2-2.4.2-.4 2.4-3 1.6-4.1-3.2.5-5.8-.6-.8v-3.2l.8-2.7-.5-4.5-1.4.5-2.2-.8-.5-2.1-2.1-2.3.8-3.3-1.1-2-2.9.3.1-3.9-.7-.2-1.7-3.5-2.1-1.4-3.7 1.1-.2-2.3 1.7-.5-.4-1.7-1.6-2-2 .8-6.6-.1-3.2.5-.8-1.6 1.3-2.4-1.2-1 1.6-2.3-.2-1.6 1.1-1.7-2.3-.8-.8-3.1-1.6-1.1-.8-1.9.5-1.1-2.1-3.5-2.2-.6 3.8-4.3-1.9-7.3-2-6.5-3.9-4.1.5-1.8h1.5l3.2-2.9.5-1.7 3.3-.3-.1-2.6-1.2-1.3.5-1.9 1.9-1-1.2-1.8.8-2 2.2-1.4 2.1-2.3.6-2.5-2.7-.9-2.6-6.3-3.3-1.1-.3-1.7-1.7-.4-1.1-2.1.3-1.5-2.2-3zm61.8-67.2-2.3-2.5 2.3.4.3-1.2 1.4-2.5 1.9.6.3-1.3 3.3-3.1 1.6 1.7-.6 3.7-1.8 2zm-9.8 3.5 2.2-2.5 4.5-1-.3 1.7 1.4.4 1.1 2.5-2.9 2.4-2.4-.6-1.8-2.9-1.1 1.2 1.2 1.6 4 1.5 2.8-1.3-1.1 3.4-1.4.1-2.3 4.4-1.8.4 1.6 1.9-2.6 1.7-4.2-.4-2.1-1 .9-.8-2.5-1.5-.1-1.6-1.5-.9.4-4.3 1.2.4 6.3-.4-3.1-2.7 1.1-.8-1.6-.6z"/><path d="m581.1 267.5 1-.6-.7-3.3 1.6-1.1 1.7.1.9 1.8.1 2.3-2.6-.6-.3 1.7zm.8-67.1-2 1.4 1.9 1.9-1.9 1.8-1-1.5-2.4 4.3-3.6 4.2-.5 2.3-1.3 1.2-1.1 4.9 1.6 5.7-.6 4.1.6 2.1 1.9 2.7-.6 3.1.8 2-.7 3.7.2 4 1.1 5 1.1.2-.7 1.6.3 3-.6 9.1.3 3.8-.8 2v2.5l1.3 1 3-1.1 4.4-4.9 4.5 5.7 1.7-1.8-.8-2.2-1.7.3.5-4.2.8-1.6.4 5.3 2.6-1.4 1 4.5 2-2.9.3-2.8-.5-2.7 1.2 1 .4 3.1 1.2-1-1.9-3.8-2.5-1.9 3.3-2.1.9-2.6 3.4-.6 1.2 1 3.1-.1 2.7-1.2h4v2.4l3.4 1.6.3 1.5 2.8-.1 2.1 1.5.6 3.1-.4 1.3 1.3 1.1-.1 1.5 1.8 1.5.7 2 1.9 2.4 3.1 1.8 1.2-.1.3 2.3 2.7.9 3.6 5.6 2.5 2.9.5 8.6 1.6 3.6-2.7 1.4-1.6-.7.2-2.4-2.3.2-2.9-1.7-1.1.7-.6 3.8-1.7 2 .1 1.4 4.8-.1 1.4-1.1 1.2.7-.9 5.2-2.3 1.2 1.2 2.3-.4 3.6-3.7 3.5-1.4-.4-1.8 2.2-.2-1-2.7.5-1.7 2.9-.1 2 1.5 1.8-1.9 2.4-3-4.8.6-2.7-.4-3.2-3.1-1.1-.7-2.1-2.3.8 1.9-1.8-.3-2.5-2.1 2.1-1.7-.2-.7 2.1-2.5.8-2.7 1.7-2.4-1.6-2.5 1.2-.9-.6-1.6 2.1-2.5-.1.8 2.4-1.4.1-1.5 2.4-.5-1.6-3.3-3.5-1.2.5v-1.8l-2.2-.8-2.7 1.3-.7-1.7-1.5 1.2-1.5-5.8 1.5-2.4-2.4-2.1 1.5-1.2 2.2-4.2-.6-2.2.5-1.7 2.1-2.2v-1l-2-.3-1.1-1.6 7.5-4-.7-2.3-2.4-1.4-.8-3.3-1.4-.9-2.7.3-1.1 3.5-2.6 1.1-.8 2.3.5 1.1-4.2 4.7-2.9 2.7-.3-1-3.1-2.5-2.4 1.9-2.8 1-1.2-1.9.2-2.1 1.3-1.6-1.3-2.3 1.6-5.1-.4-1.4 1.2-1.3-.7-3.1-2.5-1.6-1.5 1.1-1.2 2.2-3.1 2.6-1 .2-1.6-1.2-2.1-5.2 1.8-1.5-1.7-3.2-5.1-.3 1.7-2.2-1.3-2.2.6-2.1-2.1-.1-3.1-1.2 3.2-1-.8-2.1-1.8-1.4.7-2.6-1.4-1.8.9-.7-1.3-1.7 1.1-3.1 2.4-2.1 2.4-1 2.7-2.3-1-2.5.3-2.3 1.6-.3 3-2.1.9-2.1-.5-3.5 2.3-2.4-3.8-2.8-2.5-3.8-2.1-.2-.8-2.1.4-1.7-1-.9 1.6-3.9-2.2-4.7.3-1.5-2.2-2-.3-2.5 2.7-1.3 4.6.3.2-1.2h2.6l1.2-2-.9-1.8 3-2.4 1.7 1.2 1.1-1-1-3.6 2.6-2.3v-1.6l2.4-1 3-.1 4.5 2 .8 2.1 1.6 1.2-1 1.1-.1 3.1 1.5 1.3 1.7-.2 1.1-2.7 4 .2 1.3-1.3 3.3 2.5z"/><path d="m694.8 240.8 2 5.9.4 5-.6 1.3-1.1-2.6.3-1-.9-3.8.7-1.9zm-.3-12.4 1 2.7-.3 1.4-1.1-3.2zm-14.2-23.5 2-1.4.1-1 2.4 1.8.5 2.1-3-2.8zm19 79.8-.5-2.5.1-3 1.1-2.3-.1 2.4-1.1 2.9.8 2.2zm-22.8-91.9-1.7.9 1.6-1.1-.1-3.6 2 .8-1.2 1.5 2.9 3-.1 4.7-2.1-.8.4-3.5zm22.8 91.9-.6.9-4.1 1.3-.9-.3-.2-3.1-1.8-4.7 2.3-2.5-.4 3.6.8 3.7v1.9l1.2 1 2.8-1zm-3.7-19.9-1.2 1.8.8 1.8.6 5.6-.8.2-.4-2-1-4.3v-3.5l-1.4-1.4 1.8.1.8-1.6-.5-3 .5-1.2 1.3.4-1.1 4.8zm-69.5-7.7 1.4-.1 4.6 1.7 7.8 3.6 3 .5 4.3 1.4 2.3 1.1 3.1.4-4.3 1-3.9 3.4 1.2-.1-.4 2.2 1.6 1.9 4.6 7.3 1.8 1.4 3.1.6 2.5-.5 4.6 2.1 1-2.3 3.3 1.5.8 1.9-2.3-.5-.6-.9-3 3-1.4-.4-.3 2.1 3.5 6.1-1.7.2-4.4-2.5-2.2-3.8-4.3-2.6-1.5-3.2-2.8-1.6-4.4-1-.1-1.1-5-5.5-4.8-3.7-1.8-.5-2.2-2.4-.8-1.7-3.6-1.3-3.5.4-4.6-3.4-.8-2.1-2.7-2.8-3.2-1.2.7-3.2 1.4.6v-2.7l-1.4.2.8-1.7-2.2-.9-3.6-.1.5-1.1-.2-1.6 3 .3 2 2.4 2.2.3 4.1 1.3 3.4 2.3 2.3 2.9z"/><path d="m656.4 120.7 1-1.7 1.3.6 3.3-1.6 1.2.2-1.6 1.4-3.9 1.3-1 1.2zm-36-.4-.5-1.3 2.2-.4 1.2.9-.3 2.4 1.6 3.6-2.6-1.7zm-15.2-53.3-.4 1.4 1.6 1.8-1 1.1 1.8.5 2.8 4.3-.5 1.2 3.2 2.3.3 2.1 1.9 2.3.1 1.9 2 1.8 2.7 1-1.2 2-3.4.7-1.9 1.9-1.2 5.5 1.1 5.6 3.3 4.2.2 1.4-5.6-2.8-.1 1.7 1.2 2 1 3.2.9-.1 1.3 2.4-3.3.8.9 1.9-1.5 2.3 1.4.1.3 1.7 1.6.5.8 1.4 2.2-.1-.2 1.1 2-.3 2.4 5.4 4.4 3.6 1.4.3 2.3-2-1.5-1.6 3.2-2.4 1.8 1.9.3 1.5 5.4 2 .9-2.3 5.2.7 1 2.2-2.6 1.6-1.3-2-.9 1.1.5 1.8 1.2-.8.5 2.8 3.9 3.5 2 .8 2.8.1 2.5-.8 2.2 3.3-.6 2.4-1.3.5-.2 2.5 1.7 4.9 1.4 1.5 3.7 1.8 4.2.1-2.3 1.9.2 4.1.8 2.7 3.3 2.5.8-.4 2.9 3.1 2.3 4.5 3 8.4-2.6-1.1-1.3.8-7.9-2.8-6.8-.8-8.2-2.5-5.2-1-7.6-2.3-6-3.5-5.3-4.6-1-4.2-2.5-3-3.4-.3-.3-1.2 1.5-2.2-1.4-2 1-1.5-1.8-6.2-2.8-5-2-1.5-1-2.8-1.5-1.5.1-1.6-2.9-4.9-.7-2.1-1.8-.8-.8-4.5-.8-.9-.2-4.5-1.1 1.1-2.4-3.4-.9 1-2.1-2-5.1-1.8-1.2-2.3 1.4-2.9-3.3 2.1-.3 6.2 1.8.1.6 1.5h1.5l2.1 1.6 1.4-1.3 1.3 1.8-2.1.6v1.4l-2.7.2-1.2-1.5-1.3 1.3-.1-2.7-3.8-.9-2.3 1.1-1.4-.5-.4-2.2-1.9-.3-1.7-1.9-2.3.4-.8-1.1h-1.9l.1-1.7-1.5-1.7-1.8.7-2-.4-1-2 .9-2.8 3-2.6-1.3-.4 1.5-2.5 1.9-.3-.1-1.5 1.3-2.3-.4-2 3-1.4.9-3.3 3.1-1 1-1.9 3-.5.9 1.9 3.2 4 1.7-2.7 3.5-2.7 3.8-1.3.8-2.6-.9-1.8.7-1.2-1-2.8.7-1.1.6-3.9-1.1-1.6 1.1-2.6 3.5.2 1-1.5z"/><path d="m128.1 246.8-.1-.1.1-.4.2.1zm12.5 6.3-1.7 1.4-.1 3.9-.8 1.2-1.3-1.1-2.7.9-2-1.1-4.1 2.4-3.6-3-2-2.5-1.3 1.3-4.5.2-2.5-1.9v-1.4l-2-.2-1.6-1.7 1.7-1.4-3.1-2-.7-3.4-2.3 1.5-2.5-1.3-2.7-2.1 2.3-1.6.2.7 2.5-2.3 5.1-.5.7-2.2 2 .2 2.1-.9 2.5.6.9 1 2.3-1.8-.4 1.3 1.5 1.6-.3 1.5 3.3 1.8 2.2 4.2 1.9 2.4h.8l3 3 2.7.4 2-1.7z"/><path d="m77.8 237.5-.4-.5.4-.2.5.7zm2.9-.9h-.4v-.5l.6-.3zm-7.9 4.8.6-.7.3-1.6 2.2-1.6.4 1.6 2.4-.1 1.6-1.1 1 1.9-6.1 1.9z"/><path d="m91.1 266.8-.1-.2.2-.3.2.1zm-18.9-1.9.1-3.4-3.5-1.4.1-2.4 2.5-2.4 1.6-2.5 2.1.1.9-1.5 1.7 1.6 2.4-.6 3.3 1-.3-1 3.1 1.1 1.2 1.2-.4 1.2 1.7 1.2.8 2.8 1.3 1.6.3 2.7 1.5.7-.8 1-1.1.7v2.1l-1.7 1-2.3-.7.9 1.8-1.9-.7-.1 1.5h-1.4l-.6-.3-.3-.3-3.1-3.1-1.8 1.2-1.5-.1-1.1-3-2.8-.3z"/><path d="m125.2 315.6-.2-.3.3-.2.2.3zm-3.6-16.6 1.2 1.4-.2 1.6h1.3l.5 1.4 1.6-1.1 2.5.4 1.7 3.1-.4 1.7 2.6.7-.3.8-1.5-.5-1 1.6.4 1.1-3.2 2-1.7.5-.2 1.3-2.7 2.2-2.6-.1-.9 1.3-.8-.8-1.2 1.7-1.3.1-1.4 1.8-5.1-.1.7-1.3-1.2-3.5-1.6-2.1.1-2-1.1-2.6-2.1-.6.5-2.4-1.4-1.6 1-.4 1.6-.3-1.2-2.1.7-1 .3-2.7 1.1-.2 1.4 1.3 2.4-1.6 1.4 1.9 1.5-.3 2.4 2.5 2.3 1.4 3.5-2.3z"/><path d="m115.4 288.1.4-.1.1.1-.4.1zm-15.7-2.6 2.1-.3 3.9 2 .1-2.1 1.5-2 1 2.6 1.8 1.2-.3 1.9 2.9-.2 2.4 2 .1 1.4 1.7 1.3 3.4.2-.5 3.4 1.8 2.1-.4 2.2-3.5 2.3-2.3-1.4-2.4-2.5-1.5.3-1.4-1.9-2.4 1.6-1.4-1.3-1.1.2-.3 2.7-.7 1 1.2 2.1-1.6.3-3.6-2.1-.9.4-3-2.6-.8-1.3 1.7-.4 3.1-4.1-.7-2.8 1.3-3.8z"/><path d="m231.3 345.8-.2-.1.3-.2h.2zm-.3.5-.3-.2h.3l.1.1zm22.5 24.3-4.5 1.7-1.5-.6-2.2.7-.7 1.8-2.4-2.2-3.5.9-.5-2.3 2.4-2.1-2.5-1-.2-1.4-1.9-.7-1.6 1.7-.1-4.1-1.3 1.3-1.5-1.4-.6.9-2-1.4-1.1.6-.5-2.3 1.2.5 1.1-3.6-.8-.7.8-2.7-.2-2.2-2-.6.5-1.1 2-1-.6-2.8 2.2-.2.6-3.1 2.1-1.5.6-1.4 2.8.5 1-1.5-1-1.7-.7-3-2.3.7-.8-2.4 1.5-.4-.4-2.8.5-1.3 4-4.5 1.7 2-1.2 2.6 3.9.9.5 1.1 3.6 1.3 1.5-.9 5.6 1.8 5.7-2.8.7 1.5-1.4.5-.5 2.2 1.9 2.2-.4 2.4 1.8 4.5-.2 4.9-2.9 1.9h1.1l.8 2.9-3-.3-4.7 2.5.6 2.6-1.4.7 2.3 8-.9.3z"/><path d="m264.1 380.4-6.1-7.3-.5-1.9 1.6.6 1.8-2.7-7.4 1.5 1-3.9.9-.3-2.3-8 1.4-.7-.6-2.6 4.7-2.5 3 .3-.8-2.9h-1.1l2.9-1.9.2-4.9 4.2 1.6 8 2v.3l5.8 3 3.1 5.1 4.6-.1 2 2.9 4.5-.3 4.4-1.3.7 1-1.2 1.9 1.5 3.3-1.2 1.4 2.3.6 2-2.6 2.6-.1.7.1-.2 2.8 1.6 3.3-.3 3.7 1.1 1.2-.9 1.2.6 2.4-2.4 1-1.6 1.7-1-.8-4.3.4-1.2 1.4-1.1-1.1-2.9 2.1-1.9 2.7-3.5-2.7.4-2.3h-1.9l-.2-1.3-2-1-.8-2.4-1.8 1.5-5.1 1.6-2.9 1.7-3.3-.5-1.8 1.1-2.2-.2-.1-1z"/><path d="m149.6 163.3.8.5h-.7l-.1-.4zm-7.1-12.6 2.5-2.6 5.8.3 1.6-.5 2-4.1-.1-2.6 2.2-2.1 3.2-.4v-1.3l3.1 1.4 1.5-.5 1.8 1.5 2.7-.2.2 2.1 2.2-1.4.2 2.3 1.7 1.2 1.5-.8-.4 4.6-1.1-.3-.7-2.4-.5 1.8.7 1.7h-1.3l1.8 1.5.3 2.3 2.5 6.1.2 7.4-1 4.2.6.4-.2 4.4.7 1.7.1 4.8-2.9 3-1.1 2.2-1.9.8-4.7.3-4.8-1.7-2.6-2-1.3-2.2-1-4.4-1.1-1.5-1.4-4 .2-2.9-1.3-.9.5-1.5-1.2-2.5.6-3.3.8-.7-.8-2-2 3.8.5 1.4-1.5-.4-.7-1-2.3.3-.9-1.4 1.7-2.6-.8-1.8z"/><path d="m76.2 178.4 2.9-.3-.7 1.2 1.8.1.8-1.9 2.6-1.1-.3 1.9 2-.2.8 2.1 1.9.1.9 2.5-1.4 4 2.6 1.4.1-1.4 1.8-1.8-.8-3.9-1.3-.5-.7-1.9.9-1.6-.7-.8 1.4-1.7-.1 1.5 2.1-1.2-2.6-1.2-.9-1.8 6.7 1.9 2.8 1-.4 1.9.8 1.2 2.9 14.3 1.7 1 3 .2.4 1.5 1.3-.2-.6-2 .9-.1 3 3.8 2.2 3.2.1 1.4-2.9 1.1-1.6-.6-1 1.3-4.8 2.4.6 1.5-2.2 2.2-1.8.9-4.6-1.2-1.8-4.2.4-2.4-1.2-2.6-2.9-.4-.6-1.4 1-1.6-1.7-2.3-1.3.7-2.6-.2.5-.9-3.9-.5-1.2-2.4-1.8 1.1-1.3-.5-.8-2.1.7-1 .5-3.3-1.3-3.2.7-1.2z"/><path d="m89.9 180.6 1.3.5.8 3.9-1.8 1.8-.1 1.4-2.6-1.4 1.4-4 .4 2.2 1.2-.2.5-2.3z"/><path d="m149.3 162.7v.1l.3.5v.1l.1.4.3 2.3-1.3.4.5 3.9-.9 2.4-1.4 1.2-3.7.2-1.3 2.6 2.9 2.9-1.5 1.2.3-1.6-2-2-2.9 2.8-1-.4-.5 3.7 1.4 1.4-.9 4.2-2.9 1.3-1.8-1.3-.3 2-2.8 2.3-.9 2 .3 3.1 1.1 1.6-2 1.9-1.9 3.5-3.7 2-1.6-1.7-.1-1.6-1.7-1.3-1.2.3-4.1-2.1-.1-1.4-2.2-3.2-3-3.8-.9.1.6 2-1.3.2-.4-1.5-3-.2-1.7-1-2.9-14.3-.8-1.2.4-1.9 3.5.8 6.8.7 4 .8 4-.7 1.5-2.7.5-4.1 1.1-3.2 3.2.8 2-.9.3-2.8 3.2-1.7-.5-1.1 1.2-1.6 2.2-.1 3.2-2.5 1 1.3 3.3-2.8 3.2-4.3 3.8 5.5.8 1.8-1.7 2.6.9 1.4 2.3-.3z"/><path d="m14 336-1.8-1.3-2.4-3.2-.1-1.7-1.6-2.3-.6-2.7 3.1-1.8 1.2.7.9-1.2 1.7 3.9 1.7.3 2.8-1.5 2.7 5.9-2-.7-.7 1.3 1.5.8-1 1.9-2.4-.1z"/><path d="m25 354.4-.8-1.6-1.3.4v-1.5l.8-.9 1 1.5 1.8-1.1-.3-4.3 1.2-.9 1.9 1.5.5 1.7-3.7 5.1z"/><path d="m17.1 343.9-.8-1.7.2-1.8-1.9-2.5-.6-1.9 3-1.7 2.4.1 3.4 1.9-.1 1.7 2.3 2h1.9l1.4 2.3-.5.8-.3 1.8-1.3.7-2.6-1.1-1.1.9-.2-1.6-3.9.7z"/><path d="m29.3 347.5-1.9-1.5-1.2.9.3 4.3-1.8 1.1-1-1.5-.8.9-2.2-1.8-2.8-.9-.7-1.4 1.2-.6-1.3-3.1 1.3.6 3.9-.7.2 1.6 1.1-.9 2.6 1.1 1.3-.7.3-1.8 2.6 2.9-.7 1.1z"/><path d="m29.7 347.1.7-1.1-2.6-2.9.5-.8-1.4-2.3h-1.9l-2.3-2 .1-1.7-3.4-1.9 1-1.9-1.5-.8.7-1.3 2 .7-2.7-5.9.1-3.2 2.9-.3-.8-1 .9-1.9-1.5-1.9 1.2-2.9 1.2-.8 2.3 1.9.8-1.8 1.5 1.1 1.5 1.7 1.8 2.6 2.1 1.7 3.4.5 1 4 1.9 2.9-.5 3.3.6 2.2 1.3 1.6 2.4 6.7-.5 1.8-1.8.8-2.9-.7-1 2.5-2.2-.8 2 2.1-1.1 1.1-1.1.5-1.5-2.3-1.1 1z"/><path d="m57.2 208.8 2-.2.9 2.2 1.6 1.9-.4 1.3 1.3 1.1 1.2 3.3 1.9 1.7 3.1.9 1.4-.3.9 1.4.2 2.8 2 2.3-.7 1.7-3.8 2.4-.2.6-5 .3-2.4-1.3-2.1.2.1-1.6-1.1-1.9-4.9 1.6-1.3-.9-.9.8-4.9-.9.1-1.9 1.2-.8-.4-2.4-1.2-1.6 2.3-.9-.2-3.3 2.6-2.7.1-2.8 2.6.1 1.4-2.3z"/><path d="m60.1 210.8-.9-2.2-2 .2.2-4.7-1.1-1.6-2.3-1.3 1.9-1.6-.4-2.1-1.3-.7.6-1.5-1.1-1.5 3.5-2.9 1.9-3.2-.7-.6 4.2-.9.7-3.4 2.8-.3 1.4 1.8 1.7.3.9-1.7-1.1-1.4.5-.9 2.6.3 4.1-2.5 1 1.8-.7 1.2 1.3 3.2-.5 3.3-.7 1 .8 2.1-2.4-.5-1.3.8-.3 1.9 1.1 2.9-2 1.7-2.6.9-2.4 2.4 1 1.6-1.9-.2-.6 2.2-1.3.4-.1 3.1-2.1 1.3-.9-.4z"/><path d="m60.1 210.8 1.5-1.7.9.4 2.1-1.3.1-3.1 1.3-.4.6-2.2 1.9.2 1.3 2.7h1.8l3.1 2.5 2.8.7 1.2 2.4 1.9-1 3.1.3.5-1.4 2.7 1.2 1.1 3.7 1.4-.4.4 1.3 2.1-.1 2.4 2.8 1.5.4 1 1.3 3.5-.2.9.9-1.1 4.2-3 .6.1 1.9-1.7-.7-1.2 2.1.1 1.8-1.5 1 1.1 2.4-1.7.5-2.7 2.9-.8-1.1.4-2.2-2-.1-1.7-1.3-1.8.8-.2-1.3-4.2-2-1.3-3.4-4.7 1.3-2-2.3-.2-2.8-.9-1.4-1.4.3-3.1-.9-1.9-1.7-1.2-3.3-1.3-1.1.4-1.3z"/><path d="m100.1 224 1.1-4.2-.9-.9-3.5.2-1-1.3.8-.3.1-3.1-1.9-2.6.9-.4.1-2.8 4.6 1.2 1.8-.9 2.2-2.2-.6-1.5 4.8-2.4 1-1.3 1.6.6 2.9-1.1 4.1 2.1 1.2-.3 1.7 1.3.1 1.6 1.6 1.7-2.2 2.9-.4 1-.1.3-.4.9-.2 2.9 1.6.6.3 2.1 1.4.8.2 1.6 3.5 2.3 1 3 1.5-1.1 1.7 1.2 1 3 1.5.3.5 2.2 1.7 1.5 2.6-.7 1.7.9-.6.9 3.1 3.9 2.2-1.5 1.3 1.4-.7 1 1.2 2.3h1.4l.6 3.3-4.8 3-1.8-1.4v2.2l1.8 1.3-2.1 1.3-.7 2.3-2.5-2.6-2 1.7-2.7-.4-3-3h-.8l-1.9-2.4-2.2-4.2-3.3-1.8.3-1.5-1.5-1.6.4-1.3-2.3 1.8-.9-1-2.5-.6-2.1.9-2-.2-2.7-2.9.8-2-.2-2.4-1.9-2.8-1.5 1.1-2.9-3.5zm28 22.8.2-.4-.2-.1-.1.4z"/><path d="m93.6 241.5 2.2-1.1 2.2.5 2.8 1.9 2.7 2.1 2.5 1.3 2.3-1.5.7 3.4 3.1 2-1.7 1.4 1.6 1.7 2 .2v1.4l-.1 1.1-1.8-.5-1 1.8-1.7.3-3-2.1-2.2 2.3-1.5-.9-.8-1.5-1.5-.3.5-1.5-3.5-3.5-1.1-2.9-2.4-.5.1-2.5 1.3-.8z"/><path d="m100.8 242.8-2.8-1.9-2.2-.5-2.2 1.1-2.1.7-1.1-2.2-1.3-.9.4-1.7-.1-.3.2-.6 2.7-2.9 1.7-.5-1.1-2.4 1.5-1-.1-1.8 1.2-2.1 1.7.7-.1-1.9 3-.6 3.1.4 2.9 3.5 1.5-1.1 1.9 2.8.2 2.4-.8 2 2.7 2.9-.7 2.2-5.1.5-2.5 2.3-.2-.7z"/><path d="m73.7 239.1-.3 1.6-.6.7-.4.8-.3.7-2.8.8-.4-1.7-1 2-1.1.2-1.5-2-2-1.4-.5 1.4-2.6-.3-1.4 1.7-3.4-1.8-1.4.4-.7-1.4.3-.9-1.5-2.7 1.4-.7 1.1-3.2-1.3-1.6-.1-2.5 4.9-1.6 1.1 1.9-.1 1.6 2.1-.2 2.4 1.3 5-.3 1.1.7 1.5 3.6 1.6.2z"/><path d="m53.2 229.2.1 2.5 1.3 1.6-1.1 3.2-1.4.7 1.5 2.7-.3.9-1.2.8.1 1.5-3.3-1.5-.2 2.3-3.3.9-2.9.3-2.2-1.1-.7.8v-2.1l1.5-1.3.5-2.3-1.4-1-.6-2.2-1.8-.8-1.4-3.4-2.2.6-1.5-1.6 1.1-3.1 3.9-2.8.5-2.2h2l.9 1.7.3 2.3 1.9 1.2 2.8.4 4.9.9.9-.8z"/><path d="m36.5 254 1-2.1-1.5-1.8-1.4-3.4h1.3l1.8-2.5 1.9.6.7-.8 2.2 1.1 2.9-.3 3 3-1.1 1.2 3.5 3.1-.1 3.6 1 2-.3 1.7 2.1 1.5v2l1.7 1-1.5 2.1-1.5-.9-1.8 2.6-.9-3.1-3.2-3-.8.5-3.1-1.8-1.9-3.7-2.2.3z"/><path d="m55.2 263.9-1.7-1v-2l1.2-.7 2.3.3.7-3.1 1.9-.2 1.4-1.4h.7l.8 2.7 1.6.7 1.4-2 1.6.9 1.8-.4-.1 2.4 3.5 1.4-.1 3.4-4 2.8-1.6.2-.2 3.3.5 2.5-2.9 1-4-5-.3-2.2-1.5-.4-.4-2z"/><path d="m89.6 236.5-.2.6.1.3-1.6.9-2.9 4.3 1.2 2v2.5l2.2 1.6-.6 2.5-1.6 2.3-3.1-1.1.3 1-3.3-1-2.4.6-1.7-1.6-.9 1.5-2.1-.1.8-2.9 1.2-.3-1-2.4.5-1.1-2-1.2-.4-2 .3-.7.4-.8 2.4.3 6.1-1.9-1-1.9-1.6 1.1-2.4.1-.4-1.6-2.2 1.6-.9-2.7-1.6-.2-1.5-3.6-1.1-.7.2-.6 3.8-2.4.7-1.7 4.7-1.3 1.3 3.4 4.2 2 .2 1.3 1.8-.8 1.7 1.3 2 .1-.4 2.2zm-11.8 1h.5l-.5-.7-.4.2zm2.9-.9.2-.8-.6.3v.5z"/><path d="m45.4 244.8 3.3-.9.2-2.3 3.3 1.5-.1-1.5 1.2-.8.7 1.4 1.4-.4 3.4 1.8.5 5.6 1 2.2 1.7 1.6-.9.6-.1 2.2-1.4 1.4-1.9.2-.7 3.1-2.3-.3-1.2.7-2.1-1.5.3-1.7-1-2 .1-3.6-3.5-3.1 1.1-1.2z"/><path d="m91.8 265.9.8-1-1.5-.7-.3-2.7 3.3-.5 1-1.4 2.5.4 3.5-.9 1 .7.6-3 1.5.9 2.2-2.3 3 2.1 1.7-.3 1-1.8 1.8.5.1-1.1 2.5 1.9 4.5-.2 1.3-1.3 2 2.5 3.6 3v.7l3.6 3.3 1 1.7-3.6 2.1-3-2.6-3.6 3.6-3.6-2.2-1.5 1.3-1.5-.7-.8.9 1 1.3-1.5.9.1 2.7-3.5 1.3.5 3.3-2.9.6-1.2.9-1.2-1.2.6-1.1-2-.2-1 1-2.7-.5-.8 1.7-2.5-1.9-1-3.3.4-1.5-1.3-3.5-2.1-.2-1.9-1.9z"/><path d="m83.3 271 .3.3.6.3.1 1.5 1.6.6 1.6 1.7 1.3-1 2.1 2.7-.5 1.6 1.8 3.7 1.2.5.6-1.6 2.9 1.8.1 1.3 2.7 1.1 1.2 2.4-1.3 3.8.7 2.8-3.1 4.1-1.7.4-2.1-2.7-3 .5-1.6-2.5-2.1-1.3-1.1.2-.6-3.6-2.4.6-1.8-3.4-3.1-2.8.4-1 2 .1 1.2-10.6z"/><path d="m89.5 237.4-.4 1.7 1.3.9 1.1 2.2 2.1-.7 1.7 1.8-1.3.8-.1 2.5 2.4.5 1.1 2.9 3.5 3.5-.5 1.5 1.5.3.8 1.5-.6 3-1-.7-3.5.9-2.5-.4-1 1.4-3.3.5-1.3-1.6-.8-2.8-1.7-1.2.4-1.2-1.2-1.2 1.6-2.3.6-2.5-2.2-1.6v-2.5l-1.2-2 2.9-4.3z"/><path d="m46 286.6-1.6-1.3.2-2.3-1-1.2.3-1.5 1.6-.8 1.7-3.5 1.7-.7-.3-2.6h1.5l.6-1.6-1.4-1.7 1.1-1.7 1.8-2.6 1.5.9 1.5-2.1 2.6 1.2.4 2 1.5.4.3 2.2 4 5 1.3 2.4-1.2.7 2.1 1.7 2.7 5.7 1 .9.1 3.2-.9 1-3.4-2.4-1.3-2.2-1.6.4-4.1-1.3.3 2.9-3.2 1.4-1.2.8-2.3-.5-2.3.5-2.1-1.3z"/><path d="m201.8 271.2-1.2.8-.8 1.4-3.5-.2-7.9-5.2h-1.7l-1.7 1.3-1.4-1.4-1.5.8-1.3-1.3-2.7 1.1-3.8-4.1-.9.9-1.5-1.6.8-1.1-1.5-1.8-1.2.8-1.1-1.2-1.1.7-1.6-1.6-2 1.6 1.1 2.9-1.2 1.4-.5-1.3-4.2 1-1.1-2.2-2 .6-2-1.2-3.3-.3-2.6 2.7-1-.9 1-1.1-1.3-2.4 1.1-1-1.8-2.2 2.8-3.5 2.1-.2 1.8-4.5 1.5-1.1 3.7 1.6 3.1-2.4-.9-2 3.1-2.3h.9l4.6-3.7-2.2-2.6-2.3-.8-2.8 2.6-1.9-1.6-1.9-.2.4-1.7 1.8-1.9.7-1.9 1.8.2 1.8-.9-.8-3.2 1.5-1 .7-2.1-.3-2.1-1.3-2.2.1-2.8 1.8.5 7.6 6.2.2 1.8 3.4-.4 1.4 1.6 1.4-.4 1.6 2.3 2.3-1.5-.7-1.8.9-4.2-2-1.4 5.3-6 11.6 1.5.7-1 3.3.5 4.2 4.2 16 10.7 4.2 2.6 5.3 2.7 5.7-1 1-1.6 4.9-.7.1-1.4 3.1-.4 1.5-1.4 2.6.9-1.6 1.5-.6 2.8 2.2.9-.8 2.5-1.1-.4.3 1.8-4.5 1.5-1.2 1.9-7.6.7-4.2 2.9-.6 1.2-3.6-.2-4.5 1.8v.5l-4 1.7-1.2-2.4-3.1 1.4-2.8 4.2.5 1.2-1.9 1.2-4 4.1-1.8 3-.8 4.5-2.8 2.7z"/><path d="m199.8 273.4.8-1.4 1.2-.8 1.6 1.9-.5 1.7 4.4 2.9 3.5 5.9.6 3.5-1 .9-.4 5.7 1.1 2-.6 3.5-1.2 2.7 4.9 3.7.5 7.1 1.1 1-.9 2.8-.1 2.7-8.1.3-1.6 5.4-.1 2.6-.9-.4-.6-1-2.8-.4-1.9 2-3.2-3.2-4.5-1 .1-.8-3.5 1.2-.8 1.2-1.3-2.6-2.7-1.6-.2 1.1-4.4-2.4-2.2-2.3-2.7-1.8-1.2.9-1.8.1-5.9-4.4.8-1.7 1.5-2.9.2-1.7 1.8.7 3.1.3 2-4.2 1.6-.5 1.4 1.8 1.8-.3.3-2.8 6.2-1.6.7-1.9-1.1-1.3 2.2-2.7-2.2-4.9 1.8-1.5 3.6-1 4.5-3.5 1.5-1.7 1.1-3.8 2-1.9z"/><path d="m145.6 301.6 2.7.3 3-1.3 1.9-.6.7 2.9 2.3 1.4 2.8.5-.1 1.8 2 .3.7 3.6 1.7.5 2-.6-.8 1.7 5.9 4.4 1.8-.1 1.1 1.1-2.2 2.3.6 3.5-2-.7-.8.8-2.3-.7-.8 2.1h-1.4l-.5-2.7-2.8.9 2-2.5-2.2-2-3 .6-1.3 2.2 1.4 2.5.6 3.4h2.6l.9 1.4h3l.8.7 3.4-1.2 1.2 1.9-2.9 1.5-.5 2.4-1.1.6-1.5-1.5-1.9 1-1.5-.2-3.9 5.3-.3 1.3-2.9 2.7-.4 2-.1 1.4-2.3-.1-.2 1.3-2.2 1.6-2.2-1.1-2-2.5-3.9.6-.2-1.8-1.7-2 1.1-.3.1-2.8-1.5-1.2h2l.5-1.8-.6-2-3.2 1.2-.9-1.5 1.5-3.5-1.3-.8.7-4.4-2.8-3.7-.4-4.1.7-2.8 1.1-2.7 3.3-1.9.1-4.6 2.4 1 2.4-.2 3.2-1.1-.3-2z"/><path d="m151.3 300.6-3 1.3-2.7-.3-1.8-.8 3-1.4-1-1.6-.5 1.5-1-1.9 2.3-2.1-3.8.1.7 1.2-1.7.9-1.5-2-.8 1.1-3.6-2.6 2.1-1-.9-.6 1.9-4.6 1 .5 1.8-.9-.5-.9.9-3.3 1.3-1.1 1.7 1.4 2.4-.5 2-2.4.1-2 3-1.2 3.4 3.2 1.8-.1.1 1.8 2.1 1-1 1.6-.1 2.6-1.3 2.4-1.4 1 .5 1.4-1.8 2.7-1.5.3-1.1 1.4-.8-1-1.1 1.3 1.3.5z"/><path d="m107.3 283.1-1.5 2-.1 2.1-3.9-2-2.1.3-2.7-1.1-.1-1.3-2.9-1.8-.6 1.6-1.2-.5-1.8-3.7.5-1.6-2.1-2.7-1.3 1-1.6-1.7-1.6-.6-.1-1.5h1.4l.1-1.5 1.9.7-.9-1.8 2.3.7 1.7-1v-2.1l1.1-.7.1 1.3 1.9 1.9 2.1.2 1.3 3.5-.4 1.5 1 3.3 2.5 1.9.8-1.7 2.7.5 1-1 2 .2-.6 1.1 1.2 1.2.8.3zm-16.2-16.3.3-.4-.2-.1-.2.3z"/><path d="m107.3 283.1.9-3-.8-.3 1.2-.9 2.9-.6-.5-3.3 3.5-1.3 2.2 1.3 2.7.3 1.6 1-.6 1.2 1.4 2.3-.5 1.6.9 2.2-2.8-.1-2.4 1.7-.6 2.1-3 .9-1.1-1.9-2.2.6-1.8-1.2z"/><path d="m172.2 316.4 1.2-.9 2.7 1.8 2.2 2.3 4.4 2.4.2-1.1 2.7 1.6 1.3 2.6-.3 2.8.7.7-.5 3-2.5-.3-1.3.8.7 1-1 1.6-.9-.9-.9 3.6 2.5.4-.4.9 3.5 1.2-.1 1.6-1.9 1.2.6 1.8-4.7-1-5.3-2-1.9-1.7-.8 1.6-1.8.9 1.2 1.6-1.8 1.8 3.9 3.7-.3 1.2-2.8-1.1-.5-.8-2.6-.6-3.2 1 .5 3.7-2.8.4-4.2-.8-.2-1.2 2-.6.8-1.2-1.7-1.7-2.8-1.7-1.4 1.4-1.1-2.3.4-2 2.9-2.7.3-1.3 3.9-5.3 1.5.2 1.9-1 1.5 1.5 1.1-.6.5-2.4 2.9-1.5-1.2-1.9-3.4 1.2-.8-.7h-3l-.9-1.4h-2.6l-.6-3.4-1.4-2.5 1.3-2.2 3-.6 2.2 2-2 2.5 2.8-.9.5 2.7h1.4l.8-2.1 2.3.7.8-.8 2 .7-.6-3.5 2.2-2.3z"/><path d="m153.6 345.1 1.1 2.3 1.4-1.4 2.8 1.7 1.7 1.7-.8 1.2-2 .6.2 1.2 1.5 3-1.2.5 3 2.3-.1 1.3 2.2 1.8.4 1.9-1.3.4-2.4 2.5-4.3-1-2.2-1.6-.8-2.2-2.9 1.7-1.6-.4.2-1.5-2.6-2-1.1-2.7.9-1.1-1-2-1.4.2-1.7-1.7-1.5 1.4-1.9-1.1v-2.2l-3.6-2.1h-2.6l-1.5 1-3.2-.1-1.2-2.3-.2-2.6-1.4-2.5-2.1 3.2-1.4-1.2 1.7-1.3-1-2-.1-2.5-1.1-1.3.5-1.3-.7-2-2.3-1.1-2.1-1.9.7-2.7-2.8-1.2-1.4 1-2.5-1.8 1.2-.8-2.2-3.3 5.1.1 1.4-1.8 1.3-.1 1.2-1.7.8.8.9-1.3 2.6.1 2.7-2.2.2-1.3 1.7-.5 3.2-2-.4-1.1 1-1.6 1.5.5 2 3-1.1 1.2 1.7 1.6-.7 2.8.4 4.1 2.8 3.7-.7 4.4 1.3.8-1.5 3.5.9 1.5 3.2-1.2.6 2-.5 1.8h-2l1.5 1.2-.1 2.8-1.1.3 1.7 2 .2 1.8 3.9-.6 2 2.5 2.2 1.1 2.2-1.6.2-1.3 2.3.1zm-28.4-29.5.3-.2-.2-.3-.3.2z"/><path d="m69.1 290.3.9-1-.1-3.2 4.9-2.2 2.9.1 3.1 2.8 1.8 3.4 2.4-.6.6 3.6 1.1-.2 2.1 1.3 1.6 2.5 3-.5 2.1 2.7.8 1.3 3 2.6.9-.4 3.6 2.1-1 .4 1.4 1.6-.5 2.4 2.1.6 1.1 2.6-.1 2 1.6 2.1 1.2 3.5-.7 1.3-.8 1.2-.9-1.1-2.9 1.2-4.1-.8-1.7-1.5-1.6 1.7-5.2-1.3-1.3 1.8-1 3-3.5-.7-.6-1.1.7-3.2-.2-3.4-1.3-.4-.3-1.8-1.5-1.6-.4-2.5-1.4.5-1.9-1.8.6-2.2h-1.9l-2.2-1.8 2.1-1.6.4-2.8-2.2-3.3-1.7-.6-4.5-3.3z"/><path d="m134.7 314.8-1.7-1.6 1.1-1.2-2-3 .3-.8-2.6-.7.4-1.7-1.7-3.1-2.5-.4-1.6 1.1-.5-1.4h-1.3l.2-1.6-1.2-1.4-1.8-2.1.5-3.4-3.4-.2-1.7-1.3-.1-1.4-2.4-2-2.9.2.3-1.9 2.2-.6 1.1 1.9 3-.9.6-2.1 2.4-1.7 2.8.1 2 .1 4.5-1.4 3.5 1.4.7 1.4 1.1-1 1.5.7-.8 3 1.3.8-.9.9 1.1 3 .9-.1.9.6-2.1 1 3.6 2.6.8-1.1 1.5 2 1.7-.9-.7-1.2 3.8-.1-2.3 2.1 1 1.9.5-1.5 1 1.6-3 1.4 1.8.8 1.3 1.7.3 2-3.2 1.1-2.4.2-2.4-1-.1 4.6-3.3 1.9zm-19.3-26.7.1.1.4-.1-.1-.1z"/><path d="m260.7 329.9.3-.2.1-.3 3.2-2.4.5-2.3 3.4-2 2.4.1 2.5-5.9v-1.7l1.3-.5 1.3-2.8 7.8 2.4 1.8-.2.6 1.7 3.9.7 2.9-.7 1.7 1.8 3.4.4 1.3 1.2 1.6-1.5 3.9-2.4h1.7l2.2 2.3 1.3-.1 2.1 4.7-1.6 3.6.7.7 4 .4 2.4-.4 5.6 1 .5 1.9 1.7.5 1.8 3.5 3.3-.2 1.2 2.5-2.3 1.1-2.5 3.5 1.1 3.9 3.6 1.5 2.6.1.2 2.9-2.8 1.9-1.9 3 1.1.1-.6 2.3-1.1.1-3.7 2.4-3.3-1.3-.8 1.2-1.8-.9-3.5 1.1-3 1.5-6.7 1.8-2.6.1-2 2.6-2.3-.6 1.2-1.4-1.5-3.3 1.2-1.9-.7-1-4.4 1.3-4.5.3-2-2.9-4.6.1-3.1-5.1-5.8-3v-.3l-8-2-4.2-1.6-1.8-4.5.4-2.4-1.9-2.2.5-2.2 1.4-.5z"/><path d="m261.1 329.4-.1.3-.3.2-5.7 2.8-5.6-1.8-1.5.9-3.6-1.3-.5-1.1-3.9-.9 1.2-2.6-1.7-2-4 4.5-.5 1.3.4 2.8-1.5.4.8 2.4 2.3-.7.7 3 1 1.7-1 1.5-2.8-.5-.6 1.4-2.1 1.5-.6 3.1-2.2.2.6 2.8-2 1-.5 1.1-1.9.8-2.2-2.8-2.7-.9-.9-1.4-1.4.3-2.2-3.3.5-.8-3.8-1.9v-2.2l-4.3-1.8-.5-1.3-1.6-.1-.8-3.2-2.5-1.3-.2-2.2 1.2-2.2.9.4.1-2.6 1.6-5.4 8.1-.3.1-2.7.9-2.8 2 1.2h2l1.1-2.1 1.4.6 4.2-1.1 3.2.6 1.8-2 4.3-.7-.7-1.3 1.4-.4 1.2 1.3 2.5.9.9 1.2 4 .5.2 1.1 2.7 3.2 1.9 5 1.1-.1.1 2.9 2.8.9 2.1 1.7 3.3.9zm-29.8 16.4.3-.3h-.2l-.3.2zm-.3.5.1-.1-.1-.1h-.3z"/><path d="m327.3 398.7-1.5.6-1.9 2.5 1.6 1-1.5 1.4 3.1 2.2.9.1 1.5-2.2 1.4 1.1.6 3.4 2.1 1.9 2.9 3.9-2.2.6.8 4.1.3 1.8-5.4 2.4-1.6-.5-3 .3-1.6 2.4-3.7.8-2.5-1.8-1.2-2.4-1.5-.8 1.3-.9-1.1-.9-3 2.8-3.8-1.7-2.2.2-1.5-4.6-4.6-2.1-.7-3.5 2.9-.2.1-2.4-3.1-1.3 2.6-1.6 4.1-1.7 1.4.3 2.1-1.9 1.3-.2 1.5-3 3 .7 2.1-.7.4-1.6-1.2-.8 1.6-2.5 2 .5 2.8 1.6 1.8-.8 1.7 1.2 1.3-.3z"/><path d="m329.5 404.3-1.5 2.2-.9-.1-3.1-2.2 1.5-1.4-1.6-1 1.9-2.5 1.5-.6 2.1-.8-.1-.8 2.8-2.5.8-1.6-2.1-1.7 1-2.3-1.3-3.1 2.7-2.4-1.7-2 1.2-.7-.3-1.9-1.9-.6-1.5 1.1-.2-1.2 1.5-3.5-2-4.4 1.3-1.5 1.9 1.5 1.4 2.7h2.7l3.1-1.4 1.5 2.6 2.7.7-.3 1.5 1.8 1.2 1.9 3.9-.8 2.2.9 2.8 1.7.5.6 1.5-2.9 2 .3 1.9-4.2 3.8-1.4 2.5-2.2.5-.6 1.3.5 2-2.4 1.7-3.2.1-.1-.9z"/><path d="m27.3 359.4-1.8-2.4-.5-2.6 1.1-.1 3.7-5.1-.5-1.7.4-.4 2.1.5 1.1-1 1.5 2.3 1.1-.5 2.4 3.3.3 1.4 1.8-.2.4 3-3.8.4-1.2 3.6-1.8.6-1.1-1.4-1.2 1z"/><path d="m55.7 348.6-.2.6-5 1.8-3-.2-1.3-3.5-3.7-3.9.5-1.8-2.4-6.7-1.3-1.6-.6-2.2.5-3.3-1.9-2.9-1-4-3.4-.5-2.1-1.7-1.8-2.6.9-1.4.7 1.1h1.7l1.1 1 .7-2.3 1.7 2.1.2 1.7 1.6 1.5.5 3.9 1.7 1.3 1.9-.6.6 1.4.8-2.3 4.2.4 4-3.2-.7-1.5-2.5.8.3-2.4 1.2-1.4 3.3.5 1.2 1.8 1.4-.9.7-2 .7 1.6-.8.8 1 1.1h1.9l1 2.4.8 3.2-.5 4.6.7 1.5 2.9.4.1.9-2.3-.3-1 4 .6 3.7-2.6-.2-.8.9-1.4-1.3-1.8.2 1.7 2.1-1.1.8 1.9 1.5-1.6.2-3.1 1.8 3.2 1.7z"/><path d="m42.5 343.4 3.7 3.9 1.3 3.5-1.5-.2-1.4 1.3 1.6 4.3-1.3 3.5-1.8 2 2.8-1.8 2.4.7-2.8.3-2.4 1.4-2.8 2.7.4 2.2-.7 2.7-.2 8.6-2.8.6-2.5-.9-2.6.7-3-3.8.3-6.4-3.5-5.4-.6-3 2.2-.9 4 .7 1.2-1 1.1 1.4 1.8-.6 1.2-3.6 3.8-.4-.4-3-1.8.2-.3-1.4-2.4-3.3 1.1-1.1-2-2.1 2.2.8 1-2.5 2.9.7z"/><path d="m46 286.6 1.9 2 2.1 1.3 2.3-.5 2.3.5 1.2-.8-.7 2.8.7 1.7-.2 2.9-1.6.4-2.3 2.3 1.2 1.2.2 2.7-.8 1.5-2.1.9-2.7-1.8-3.5 1.9 2 2.5.1 2.1-1.2 3.3 1.1 1.9 2.4 2.2-.3 2.4 2.5-.8.7 1.5-4 3.2-4.2-.4-.8 2.3-.6-1.4-1.9.6-1.7-1.3-.5-3.9-1.6-1.5-.2-1.7-1.7-2.1-.7 2.3-1.1-1h-1.7l-.7-1.1-.9 1.4-1.5-1.7-1.5-1.1.8-3-2.4-3.4 1.1-2-.6-1 1.3-1.5-3.5-4.3-1.3.5-1.6-1.8 1.6-.9-.6-1.4 3 1.2.7 1.2 1.7-1.4-5.7-4.9 1.3-1.1 2.8-.9 2.2 1.7 1.6-.5 4 5.1 2.3-1.2 1.7-.1 2-4.3 1.8.7v-2.3l1.2 1h2.4z"/><path d="m50.4 267.7-1.1 1.7 1.4 1.7-.6 1.6h-1.5l.3 2.6-1.7.7-1.7 3.5-1.6.8-1.4-1-1.3-5.3h-1.8l.1-2.5 1.3-3.4-2.6-2.2-2.3-1-.7-2.1.4-1.6-2.1-1.8v-2l1.5-.9 1.5-2.5 1.8 2.9 2.2-.3 1.9 3.7 3.1 1.8.8-.5 3.2 3z"/><path d="m377.6 383.1 1.1-.9 2.8.8 2 1.8 2.2-.1 2 .9.3 1.1 2.3-.8 2.2.1 1.4 1.1-1.9.7.4 2.2-1.5 2.5.4 1.5 1.9.9-1.5 3.4-1.7.8-.4 2.3-1 .2-1 4.4 1.8 3 1.9.9-.6 4.2-4.9 3.8-2.3-1.2-3.9.5-3.5-.8-2.1 1.3-3-.2-1.1-.8-1.9.4-2-1.9-.9-2.8-8-.1-.4-1.3-2 1-2.3-1.4-.9 1.4-2.6.1-2.1 2.1-2.6.4-2 1.3-4.3 1.8-.5 1.1-2.3.5-.8-4.1 2.2-.6-2.9-3.9-2.1-1.9-.6-3.4-1.4-1.1 3-.9.1.9 3.2-.1 2.4-1.7-.5-2 .6-1.3 2.2-.5 2.3 2.4h4.5l2.8.9 5.4-.5 3-2.9 2-1 .4-2.1 2.1-3.6 2.2-.9.2-3.7 3.9-1.6.8.7 2.2-1.6 2 .4.7-1.6 1.3.8z"/><path d="m393.9 387.1-1.4-1.1-2.2-.1-2.3.8-.3-1.1-2-.9-2.2.1-2-1.8-2.8-.8-1.1.9-1.1-.3-2.9-3.1-2.5-1.4 2-3.3 3 .2.3-3.8-.8-.8.4-2.2 1.2-.8-1.4-3.7 1.7-3.5 1.3.3 1-1.4-.1-1.8 1.4-.3-.9-3.5-1.7-.2.6-1.3-1.5-.6 2.2-7.4 4.5-.5 1.1.5 2.2-1.1 1.1-2.9 1.7-.2 3 4.5 1.8.9 1-1.5-1.3-2.9 1.5-1.2-.4-1.1 2-1.5.8-2.3 1.9-1 1.4-2.3-1.2-3.8 2.5-2.1 3.8 2.9 1.4-.2 3.6 1.9 1.8-1.6-.8-.7 2.2-3.4-1.7-3-.9.3-1.5-1.8.7-1.6 1.8-.3-.6-4-2.9.3-1.4-.7-1.9-3.6.9-3.5-.6-1.5 4.4-4.5-.5-1.3 1.7-2.4-.8-1.9 1-3.7-1.5-.4-2.6-2.9.5-2.2 1.2-1.3-1.1-.7.2-3.6-.6-1.4 3.7.3.1-1.4 2.5-1.3-1.7-1.2 2-.8 1.6 2 .4 1.7-1.7.5.2 2.3 3.7-1.1 2.1 1.4 1.7 3.5.7.2-.1 3.9 2.9-.3 1.1 2-.8 3.3 2.1 2.3.5 2.1 2.2.8 1.4-.5.5 4.5-.8 2.7v3.2l.6.8-.5 5.8 4.1 3.2 3-1.6.4-2.4 2.4-.2 3.3-2.2.6-2.5 1 1.5 1.8-.4.4 2.2 3.5-3.8-.5-2.8 1.6-1.8 1.2-3.7-.3-2.3 1.2-2.3 2-2.3 2.2.1 2.5-.7 2.4.8 2.8 2.4.3 2.1 4.2-.8 1.3-2.2 3.6 1.2-.2 1.2 2.6 2.6.7 2.1h1.9l1 2.1-2 1.6-2.1-.6-3.2 1.2-.6 1.2 1.2 4.2-1 .8 6.4 5.4-.4 1.8-1.1-.7-1.6 3.1-2.8.1-1 .9-2.6-.2 1.8-2.9-2.3.2-1.4 2.2-1.8.6.1 4.1-3.2 1.8-.2 1.5-2.8-.1-.8.8-3.4.2-1.3-1.6-.7 1.3-3.5.9-2.3-.9.1 2-.9 1.1-3.2.9-2.8-.2-1.2 3.2-1.4.1-3.3 2.6.2 2.7 1.3-.1 3.1 2.3-1.3.2-.4 4.8 1.5 1.7 1.2 4.9-.4 1.5 2.8-.5-1.3 7.3-.5 5.9-8.8 9.9-1.7 4.3-3 3.7-2.7 1.7.6 3.2-2.5.5-2.2 1.9-.5-2.2-1.7-.5-1.4.8-1.3-1.4-.1-1.6-3.1-1.1-2-1.8h-4l-3.1-1.7-5.9-2.3-1.9-1.7-.9-1.8-2.2 1.2-.8 1.6-1.8.5z"/><path d="m484.6 305.1 2 4.2 1.2 1.3 1.5-.4 2.8 2 .6 1.3 1.7.2-.6 1.6 2.7 1.4 1.8-.5 1.9.6-1.6 2.5 1.8 1.7 3.3-3.4 1.1-.6 1.6 1.2 1.5 2.3 2.1-2.3 1.1.7 2.1 3.7-.5 2.4 1.3-.6 1.3 1.7 1.5.2-1.9 1.5 1.5 3.5 2.3.6 2.5 2.7-3.5 3.8-1.7 1-1.2 5.1-.8 1.6.8 1.2 1.8-1.4 2-.2.4 1.8 1.9 1.3-.1 2.4-1.4 3.3.6 5.7-.5 2.2.6 1.4-.4 3.9 1.4-.4.9 2.1-.8 1.6-2.5 1.6-1.5 3.8-1.8 2.5-3.4.7-7.7-.1-2.3 2.4-2.3 1-5-1-2.9.9-3.3 4-1.5 2.6-.2 2.4-1.6 1.6-2 .4-2.1 2-4.1 2.1-3.1 3.4h-2.6l-.9 1.1-7 .7-3.9 1.6-4.7-1.7-.7-2.3-1.4.1-.3-1.6.8-2 3.8-3-3.5-.2-.1-3.8.9-1.3-1.2-.3.5-2.7 4.3-.2 4.1-3.8 4-.5 1.7-3.6 2.9-3 1-3.1 2.2-.2.3-1.5 2.4-.9 1.2-1.8 1.9-.7 2.1-3.3-.1-3.7-2.6-.6-2.4-2.8 4.9-6.1 1.9-5.2 2.6-2.2 2.4-1.3.2-3-2.1-2.2-2-.1-1.1-1-2 1.1-1.9-2.2-.9-2.3-1.1-.7-2.4-4-1.1.2-.2-3.3 2.6.2 1-.9 2.8-.1 1.6-3.1 1.1.7.4-1.8-6.4-5.4 1-.8-1.2-4.2.6-1.2 3.2-1.2 2.1.6z"/><path d="m590 335.2 1.2-2.2-.6-2.8 1.1-.9 1.5-2.4 1.4-.1-.8-2.4 2.5.1 1.6-2.1.9.6 2.5-1.2 2.4 1.6 2.7-1.7 2.5-.8.7-2.1 1.7.2 2.1-2.1.3 2.5-1.9 1.8-2.4 4-.3 2.3-2 1.6-1.2 3 .7 2.3-4.6 4.7-1.3.2-1.7 2.2-3.9-.9-1-2.6-3.2-.8z"/><path d="m591.7 329.3-1.1.9.6 2.8-1.2 2.2-1.9 1.7-2.8.3-4.2-.8-1.8 2.1-2.5.5-.3-.8-3.5 3.1-1.7.7-2.9-.3-1.8-3.1-1.9.2-2.6-2.9-3.5-.8-2-2.4-2.2-.5-3.3-2-.4-1.5-8.5-3.2-4.2.4-3.7 2.3-1.6-.5-4.1.7-1.8 1.2-1.5 2-2.8 1.6-1.3 1.4-2.5-2.7-2.3-.6-1.5-3.5 1.9-1.5-1.5-.2-1.3-1.7-1.3.6.5-2.4-2.1-3.7-1.1-.7-2.1 2.3-1.5-2.3-1.6-1.2-1.1.6-3.3 3.4-1.8-1.7 1.6-2.5-1.9-.6-1.8.5-2.7-1.4.6-1.6 1.4-2 3.2-2.2 2.1-.7 2.1 1.3 2.6-1.6 3.2.7.6-1.3 3-.3 2.6-1.5 4.3.9 1.6 1 2.3-1.1 1.1-1.4 2.1.1 2.4-1.6.7 1.1 2-1.1 1.7-2.7 3.1-.9 3.1-3.5 1.7.2 2.6-1.7-1-1.2 2.2-2.9 1.7-.8 4.2-3.4 1-.2 3.1-2.6 1.2-2.2 1.5-1.1 2.5 1.6.7 3.1-1.2 1.3.4 1.4-1.6 5.1 1.3 2.3-1.3 1.6-.2 2.1 1.2 1.9 2.8-1 2.4-1.9 3.1 2.5.3 1 2.9-2.7 4.2-4.7-.5-1.1.8-2.3 2.6-1.1 1.1-3.5 2.7-.3 1.4.9.8 3.3 2.4 1.4.7 2.3-7.5 4 1.1 1.6 2 .3v1l-2.1 2.2-.5 1.7.6 2.2-2.2 4.2-1.5 1.2 2.4 2.1-1.5 2.4 1.5 5.8 1.5-1.2.7 1.7 2.7-1.3 2.2.8v1.8l1.2-.5 3.3 3.5z"/><path d="m77.7 284-2.9-.1-4.9 2.2-1-.9-2.7-5.7-2.1-1.7 1.2-.7-1.3-2.4 2.9-1-.5-2.5.2-3.3 1.6-.2 4-2.8.8.8 2.8.3 1.1 3 1.5.1 1.8-1.2 3.1 3.1-2 1.5-1.2 10.6-2-.1z"/><path d="m73 252.8-1.6 2.5-2.5 2.4-1.8.4-1.6-.9-1.4 2-1.6-.7-.8-2.7h-.7l.1-2.2.9-.6-1.7-1.6-1-2.2-.5-5.6 1.4-1.7 2.6.3.5-1.4 2 1.4 1.5 2 1.1-.2 1-2 .4 1.7 2.8-.8.4 2 2 1.2-.5 1.1 1 2.4-1.2.3z"/><path d="m95.8 208.6-.1 2.8-.9.4 1.9 2.6-.1 3.1-.8.3-1.5-.4-2.4-2.8-2.1.1-.4-1.3-1.4.4-1.1-3.7-2.7-1.2-.5 1.4-3.1-.3-1.9 1-1.2-2.4-2.8-.7-3.1-2.5h-1.8l-1.3-2.7-1-1.6 2.4-2.4 2.6-.9 2-1.7-1.1-2.9.3-1.9 1.3-.8 2.4.5 1.3.5 1.8-1.1 1.2 2.4 3.9.5-.5.9 2.6.2 1.3-.7 1.7 2.3-1 1.6.6 1.4 2.9.4 1.2 2.6-.4 2.4z"/><path d="m84.5 316.5-1.3.1-1.3 1.6-3.4-.4-3.6 2.6.4 2.1-5.3 1.6-.5-2.6-1.7-1.7h-3.2l-2.4-1.5-2.7.6.5 2.6-1-2.4h-1.9l-1-1.1.8-.8-.7-1.6-.7 2-1.4.9-1.2-1.8-3.3-.5-1.2 1.4-2.4-2.2-1.1-1.9 1.2-3.3-.1-2.1-2-2.5 3.5-1.9 2.7 1.8 2.1-.9.8-1.5-.2-2.7-1.2-1.2 2.3-2.3 1.6-.4.2-2.9-.7-1.7.7-2.8 3.2-1.4-.3-2.9 4.1 1.3 1.6-.4 1.3 2.2 3.4 2.4.5 3.4 4.5 3.3 1.7.6 2.2 3.3-.4 2.8-2.1 1.6 2.2 1.8h1.9l-.6 2.2 1.9 1.8 1.4-.5.4 2.5 1.5 1.6z"/><path d="m127.9 260.7 4.1-2.4 2 1.1 2.7-.9 1.3 1.1.8-1.2.1-3.9 1.7-1.4.7-2.3 2.1-1.3-1.8-1.3v-2.2l1.8 1.4 4.8-3 1.8-.9 2.4 2.9-.6.8 1.3 1.7-1.8 4.5-2.1.2-2.8 3.5 1.8 2.2-1.1 1 1.3 2.4-1 1.1 1 .9 2.6-2.7 3.3.3 2 1.2 2-.6 1.1 2.2 4.2-1 .5 1.3.4.7 4.2 3.9-.3 1.4-2.1 1.8-.8-.3-2.7 1.7-.5 1.7 1.8 2.4-1.6.8.1 1.6-2 .8-.5 1.4-2.1-1-.1-1.8-1.8.1-3.4-3.2-3 1.2-.1 2-2 2.4-2.4.5-1.7-1.4-1.3 1.1-.9 3.3.5.9-1.8.9-1-.5-1.9 4.6-.9.1-1.1-3 .9-.9-1.3-.8.8-3-1.5-.7 1.2-1.9-.9-1.2.8-1.3-1.9-1.3 1.4-2.4-2.4.9-.1-1-2.2-1.9-1.7.5-1.1-1.7-2 .2-2.8-3.5 3.6-3.6 3 2.6 3.6-2.1-1-1.7-3.6-3.3z"/><path d="m134 284.1-1.1 1-.7-1.4-3.5-1.4-4.5 1.4-2-.1-.9-2.2.5-1.6-1.4-2.3.6-1.2-1.6-1-2.7-.3-2.2-1.3-.1-2.7 1.5-.9-1-1.3.8-.9 1.5.7 1.5-1.3 3.6 2.2 2.8 3.5 2-.2 1.1 1.7 1.7-.5 2.2 1.9.1 1 2.4-.9-1.4 2.4 1.9 1.3-.8 1.3.9 1.2z"/><path d="m327.3 398.7.4-2.6-1.3.3-1.7-1.2-1.8.8-2.8-1.6-1.3-2.4.9-1.9-2.2-1.2 2-2.7-1.7.1-1.6-1.3-1.7-3.6-3.1-2.4-.8.1-1.9-2.5-.6-2.4.9-1.2-1.1-1.2.3-3.7-1.6-3.3.2-2.8-.7-.1 6.7-1.8 3-1.5 3.5-1.1 1.8.9.8-1.2 3.3 1.3 3.7-2.4 1.1-.1.6 1.3-1.3.6.4 1.7 2.6 1.4 1.6 4.9-1.7.7-2.6 2.2-1.3 1.5 2 4.4-1.5 3.5.2 1.2 1.5-1.1 1.9.6.3 1.9-1.2.7 1.7 2-2.7 2.4 1.3 3.1-1 2.3 2.1 1.7-.8 1.6-2.8 2.5.1.8z"/><path d="m70 324.1-2.3 1 2.2 3.7-2.6 3.2.4 2 1.3-.6.7 1.4 2.1 1.8.3 4.7-.9 2.8-.3 3.7-1.8-.5-.7-1.5-1.1.2 2.2 5.8h-1.8l-2.1-1.1-1.3 2.3-.4-1.9-3.5-.3-3.2-2.5-1.5.3v-1.4l-3.2-1.7 3.1-1.8 1.6-.2-1.9-1.5 1.1-.8-1.7-2.1 1.8-.2 1.4 1.3.8-.9 2.6.2-.6-3.7 1-4 2.3.3-.1-.9-2.9-.4-.7-1.5.5-4.6-.8-3.2-.5-2.6 2.7-.6 2.4 1.5h3.2l1.7 1.7z"/><path d="m637.6 305.3 2.7-1.4.4 5 3 6.8.8 4.9.2 5.3-.5 2.8.6 3.3-.3 1.6.8 3.3-.8 1.7.7 5.1.8.5-.4 2.4.6 1.5-1.2 4.7-1.3 3.1-.2 2.7-1.9 2.5-1.3 2.8h-1.7l-.6 1.4-1.3-.6-2.4 2.5-2.5-2.9-.6 3.4-.8 1.1.1-2.4-1.6.8.5.9-.5 3.5.7 2.9-3.5 2.5 2-.3.4 2.5-4.3-1.5 1.4-2.7 1.4-1-1.4-4.9-1.5-.4-2.5-4-4.8-3.2-1.7-.5 2-3.1v-4.4l1.6-.2 2.1 1 .6 1.5 3.4.3.5-2.3-1-3.6 1.1-1.8-1.8-2.1.7-2.4-1.4-2.4.4-1-1.1-1.5.4-1.8-1.6-1.2-.3-1.7 1.9-2.4-1.5-1.8.1-2 1.7-2.9 2.7-.5.2 1 1.8-2.2 1.4.4 3.7-3.5.4-3.6-1.2-2.3 2.3-1.2.9-5.2-1.2-.7-1.4 1.1-4.8.1-.1-1.4 1.7-2 .6-3.8 1.1-.7 2.9 1.7 2.3-.2-.2 2.4z"/><path d="m595.4 122.2 1.8 3.2 4.2 10.8-2.2-.9-1.4-1.9-.1 3.2-1.2-1.4-1.6.6-1.9-3.3-3.3-1.5 1.3 2.8-.3 1.7h-2.2l-1.2 5.1.4 1.1-1.5 2.5.8 4.3 2.7 1.3.6 3.3 1.8 2.1 1.3 5.4 1.5 2.8 1.5 1.1-.4 1.3 2.7 2.1 2.1-4 3.2.2-1.9 3.1.4 2.7-3.1 2.4 1.6 3.4-2.5 2.1.7 2.2-1.5 3.1-2.6.1 1.4-3.2.5-2.9-1.9 2.2-3.2.2-.9 2.3.9.6-1.3 1.6-1.2-.3-3.4 3.1-.2 2.5 1.1.3-1.1 1.6 1.1 1.2 1.5-.4-1.5 2.2-1-.4-1.4 2 .2 2.4-2.8 2.2.2-1.1-3.3-2.5-1.3 1.3-4-.2-1.1 2.7-1.7.2-1.5-1.3.1-3.1 1-1.1-1.6-1.2-.8-2.1-4.5-2-3 .1-2.4 1v1.6l-2.6 2.3-.7-3-1.7-.8.5-1.7-2-.5-3.5-2-2.7-3.9-1.5-.6.5-2.6-1.2-2.8 2.9-1.9v-2l2.6-.1-1.8-2.6-1.4.4-.8-2 1.8-.6 1.4-2.2-.1-2.9 1.1-.6 2.7.8 1.2-1.3-1.3-.8 1.1-2.6.3-3.3h1.5l-1.6-3.6-2.6-.2-2.1-1.9.4-3.4-3.6-1.8-.4-1.3 1.4-1-.5-1.6h-1.4l-1-1.9 1.5-.8 1.1-3.3 1.9-1.8-.8-1.4 2.6-.3 1-1.5-1.1-1.9 1.1-2.9-2.1-1 2.1-1.9 3.9 2.6 4.4-3.8 3-.6 1.2-2.8 3.4-1.1 3.3-4.3-1-.9 2 .4 1.8-.7 1.5 1.7-.1 1.7h1.9l.8 1.1 2.3-.4 1.7 1.9 1.9.3.4 2.2 1.4.5 2.3-1.1 3.8.9.1 2.7 1.3-1.3 1.2 1.5z"/><path d="m452.7 400.8-3.4.8-4.4-1.8-2.5 1.1-1.9-.5-4.3.5-5.4 3.1-1 1.5-3.3 1.1-7.5-.8-1.9-.8-2.2-4.7-.2-2-5.2-.1-5.9-1.4-3.2.5-2.3-1-2.2-.1-2.7-1.3-1.9-.9-.4-1.5 1.5-2.5-.4-2.2 1.9-.7.6-1.5 1.8-.5.8-1.6 2.2-1.2.9 1.8 1.9 1.7 5.9 2.3 3.1 1.7h4l2 1.8 3.1 1.1.1 1.6 1.3 1.4 1.4-.8 1.7.5.5 2.2 2.2-1.9 2.5-.5-.6-3.2 2.7-1.7 3-3.7 1.7-4.3 8.8-9.9.5-5.9 1.3-7.3-2.8.5.4-1.5-1.2-4.9-1.5-1.7.4-4.8 1.3-.2-3.1-2.3-1.3.1-.2-2.7 3.3-2.6 1.4-.1 1.2-3.2 2.8.2 3.2-.9.9-1.1-.1-2 2.3.9 3.5-.9.7-1.3 1.3 1.6 3.4-.2.8-.8 2.8.1.2-1.5 3.2-1.8-.1-4.1 1.8-.6 1.4-2.2 2.3-.2-1.8 2.9.2 3.3 1.1-.2 2.4 4 1.1.7.9 2.3 1.9 2.2 2-1.1 1.1 1 2 .1 2.1 2.2-.2 3-2.4 1.3-2.6 2.2-1.9 5.2-4.9 6.1 2.4 2.8 2.6.6.1 3.7-2.1 3.3-1.9.7-1.2 1.8-2.4.9-.3 1.5-2.2.2-1 3.1-2.9 3-1.7 3.6-4 .5-4.1 3.8-4.3.2-.5 2.7 1.2.3-.9 1.3.1 3.8 3.5.2-3.8 3-.8 2z"/><path d="m30.3 162-.1 3.8 1.3 2.5-.9 1.8-4.9 1.3-3.9-11.5-1.6-4.9 3.5 2.7-.6-2.4 2.1-.4 2.4 6.5 2-1.1z"/><path d="m7.5 324.8-1.9-3-2.5-.3-.1-2.6.4-7.6-.5-3.2-1.4-2.9.6-3.3-1.9-2.3.9-2.4-1.1-5.6 2.7.2.6 2.3-.8.4 2.7 1.6.6 1.6 1.9-2.6 1.6.8 2.7-.8 1.9 1 1.2 1.9-.1-3.9-.8-.8 1.2-3 1 1.9 4.4 2.3.6 1.4-1.6.9 1.6 1.8 1.3-.5 3.5 4.3-1.3 1.5.6 1-1.1 2 2.4 3.4-.8 3-.8 1.8-2.3-1.9-1.2.8-1.2 2.9 1.5 1.9-.9 1.9.8 1-2.9.3-.1 3.2-2.8 1.5-1.7-.3-1.7-3.9-.9 1.2-1.2-.7zm8.4-11.5-1.5-1.5-.7-2.5-2.8-.7-1.5-1.5-1.2-2.4.2 3.4 2.3 2.9 1.2-1.6.5 1.9 1.2.4-1.2 2.4-3.7.8.6 2.3-1.9.1v-1.8l-1.9 1.5 1.5 4.1 2.4-.3 1.9-1.8 1.4-2.3 1.4-.5.7.9-.6 2.6 1.8-3.8z"/><path d="m218.3 347.4-1.2 1-1.8-.7-1.4 1.8-3.3-.3-6.8-1.4-2.9-.3-2.7-1.4-1.6.2-.8 1.6-1.3-1.3-5.4-1.5-4-.6-.6-1.8 1.9-1.2.1-1.6-3.5-1.2.4-.9-2.5-.4.9-3.6.9.9 1-1.6-.7-1 1.3-.8 2.5.3.5-3-.7-.7.3-2.8.8-1.2 3.5-1.2-.1.8 4.5 1 3.2 3.2 1.9-2 2.8.4.6 1-1.2 2.2.2 2.2 2.5 1.3.8 3.2 1.6.1.5 1.3 4.3 1.8v2.2l3.8 1.9-.5.8z"/><path d="m299.3 410.8-1.5-2.3-2.4-1.4-4.4.3-2 1.4-4.5-1.2-2 .2-.1-2.1-2.2-.3.8-1.6-2.7-1.9-1.7.6-.3 2.2-3.1 1-2.2-6.8-6.1-16.8-.8-1.7 3-1.9.1 1 2.2.2 1.8-1.1 3.3.5 2.9-1.7 5.1-1.6 1.8-1.5.8 2.4 2 1 .2 1.3h1.9l-.4 2.3 3.5 2.7 1.9-2.7 2.9-2.1 1.1 1.1 1.2-1.4 4.3-.4 1 .8 1.6-1.7 2.4-1 1.9 2.5.8-.1 3.1 2.4 1.7 3.6 1.6 1.3 1.7-.1-2 2.7 2.2 1.2-.9 1.9 1.3 2.4-2-.5-1.6 2.5 1.2.8-.4 1.6-2.1.7-3-.7-1.5 3-1.3.2-2.1 1.9-1.4-.3-4.1 1.7-2.6 1.6 3.1 1.3-.1 2.4z"/><path d="m311.8 305.3.3 2.6 4.1 2.9 2.2.9-1.5 2.3-7.1 3.5-1.3.1-2.2-2.3h-1.7l-3.9 2.4-1.6 1.5-1.3-1.2-3.4-.4-1.7-1.8-2.9.7-3.9-.7-.6-1.7-1.8.2-7.8-2.4-1.3 2.8-1.3.5v1.7l-2.5 5.9-2.4-.1-3.4 2-.5 2.3-3.2 2.4-1.8-1.4-3.3-.9-2.1-1.7-2.8-.9-.1-2.9-1.1.1-1.9-5-2.7-3.2-.2-1.1-4-.5-.9-1.2-2.5-.9-1.2-1.3-1.4.4.7 1.3-4.3.7-1.8 2-3.2-.6-4.2 1.1-1.4-.6-1.1 2.1h-2l-2-1.2-1.1-1-.5-7.1-4.9-3.7 1.2-2.7.6-3.5-1.1-2 .4-5.7 1-.9-.6-3.5-3.5-5.9-4.4-2.9.5-1.7-1.6-1.9.3-1.1 2.8-2.7.8-4.5 1.8-3 4-4.1 1.9-1.2-.5-1.2 2.8-4.2 3.1-1.4 1.2 2.4 4-1.7v-.5l4.5-1.8.6 1.2-.4 2.9.9.9-2.3 3.2-.2 1.5-1.7.9 2.4 1.6.4 2.9 4.6.5 2.2.9 1.3-.7 3 1.2 2.7 2.2-1.4 2.1 1.3 2 1.9 1.3 3.4-1.3 1.6 1.3.6-1.9 1.6.4 2.6 2.4 1.3.2 1.4 2-1.4 1.3.5 3.4 1.9.8.4 1.3-1 3.3 2.7-.2 2.1.8 2.3-.8.5 2.4 3.7 1.4.8 1.5 1.7.6 4.1.2 1.7 2 1.7-.4 1.6 1 .8 2.7 2.7 2.9 3.6-.6 4.6.9.8-1.6 3.3-1.6 2.3-.6.8 3 2 1.5 1.2-.9 2.9.8 2.3 3.1 2.4-.7 1.8 1.9z"/><path d="m165.3 310.4-2 .6-1.7-.5-.7-3.6-2-.3.1-1.8-2.8-.5-2.3-1.4-.7-2.9-1.9.6.5-3.1-1.3-.5 1.1-1.3.8 1 1.1-1.4 1.5-.3 1.8-2.7-.5-1.4 1.4-1 1.3-2.4.1-2.6 1-1.6.5-1.4 2-.8-.1-1.6 1.6-.8-1.8-2.4.5-1.7 2.7-1.7.8.3 2.1-1.8.3-1.4-4.2-3.9-.4-.7 1.2-1.4-1.1-2.9 2-1.6 1.6 1.6 1.1-.7 1.1 1.2 1.2-.8 1.5 1.8-.8 1.1 1.5 1.6.9-.9 3.8 4.1 2.7-1.1 1.3 1.3 1.5-.8 1.4 1.4 1.7-1.3h1.7l7.9 5.2 3.5.2-.5 1.6-2 1.9-1.1 3.8-1.5 1.7-4.5 3.5-3.6 1-1.8 1.5 2.2 4.9-2.2 2.7 1.1 1.3-.7 1.9-6.2 1.6-.3 2.8-1.8.3-1.4-1.8-1.6.5-2 4.2-3.1-.3-1.8-.7-.2 1.7z"/><path d="m15.9 313.3.1 2.6-1.8 3.8.6-2.6-.7-.9-1.4.5-1.4 2.3-1.9 1.8-2.4.3-1.5-4.1 1.9-1.5v1.8l1.9-.1-.6-2.3 3.7-.8 1.2-2.4-1.2-.4-.5-1.9-1.2 1.6-2.3-2.9-.2-3.4 1.2 2.4 1.5 1.5 2.8.7.7 2.5z"/></g>
</svg>