<svg width="100%" height="100%" viewBox="0 0 600 600" xmlns="http://www.w3.org/2000/svg">

    <g transform="translate(200, 200)">
        <circle cx="100" cy="100" r="100" fill="orange"/>

        <!-- Bar chart -->
        <rect x="40" y="120" width="20" height="40" fill="lightblue"/>
        <rect x="65" y="100" width="20" height="60" fill="lightblue"/>
        <rect x="90" y="80" width="20" height="80" fill="lightblue"/>
        <rect x="115" y="60" width="20" height="100" fill="lightblue"/>
        <rect x="140" y="40" width="20" height="120" fill="lightblue"/>
    </g>

    <!-- Circles as paths -->
    <path d="M150,300a150,150 0 1,0 300,0a150,150 0 1,0 -300,0 Z" fill="none" stroke="grey" stroke-width="0.5"/>
    <path d="M100,300a200,200 0 1,0 400,0a200,200 0 1,0 -400,0 Z" fill="none" stroke="grey" stroke-width="0.5"/>
    <path d="M50,300a250,250 0 1,0 500,0a250,250 0 1,0 -500,0 Z" fill="none" stroke="grey" stroke-width="0.5"/>
    <path d="M0,300a300,300 0 1,0 600,0a300,300 0 1,0 -600,0 Z" fill="none" stroke="grey" stroke-width="0.5"/>

    <!-- Small satellite circles and text -->
    <circle cx="406" cy="196" r="10" fill="orange"/>
    <text x="416" y="206" font-family="inherit" font-size="20" fill="black">
        <tspan x="416" dy="1rem" font-weight="700" stroke="#5A478DFF" fill="#5A478DFF">Title 1</tspan>
        <tspan x="416" dy="1rem" font-size="14">subtitle 1</tspan>
    </text>
    
    <circle cx="100" cy="77" r="10" fill="orange"/>
    <text x="110" y="87" font-family="inherit" font-size="20" fill="black">
        <tspan x="110" dy="1rem" font-weight="700" stroke="#5A478DFF" fill="#5A478DFF">Title 2</tspan>
        <tspan x="110" dy="1rem" font-size="14">subtitle 2</tspan>
    </text>
    <circle cx="140" cy="420" r="10" fill="orange"/>
    <text x="150" y="430" font-family="inherit" font-size="20" fill="black">
        <tspan x="150" dy="1rem" font-weight="700" stroke="#5A478DFF" fill="#5A478DFF">Title 3</tspan>
        <tspan x="150" dy="1rem" font-size="14">subtitle 3</tspan>
    </text>
    <circle cx="473" cy="480" r="10" fill="orange"/>
    <text x="483" y="490" font-family="inherit" font-size="20" fill="black">
        <tspan x="483" dy="1rem" font-weight="700" stroke="#5A478DFF" fill="#5A478DFF">Title 4</tspan>
        <tspan x="483" dy="1rem" font-size="14">subtitle 4</tspan>
    </text>

</svg>
