<svg  width="100%" height="100%" viewBox="0 250 1001 500" xmlns="http://www.w3.org/2000/svg">
    <linearGradient id="a" gradientUnits="userSpaceOnUse" x1="400" x2="400" y1="0" y2="300">
        <stop offset="0" stop-color="#81ad2d"/>
        <stop offset="1" stop-color="#568f30"/>
    </linearGradient>
    <path fill="url(#a)" d="m0 0c3.98739436.63281095 7.25723259 1.88533848 10.91015625 3.58984375 1.14452637.53181885 2.28905273 1.0636377 3.46826172 1.61157227 1.22823426.57825537 2.45625695 1.15696029 3.68408203 1.73608398 1.26965657.59505059 2.53935094 1.19002055 3.80908203 1.78491211 43.10288135 20.24838301 85.79532874 43.49161912 123.12841797 73.27758789.89460937.70125 1.78921875 1.4025 2.7109375 2.125 10.76030339 8.5829986 21.79299515 17.98260596 30.2890625 28.875.90878906 1.15242188.90878906 1.15242188 1.8359375 2.328125 6.14243782 8.10898907 11.14116941 16.84797666 16.1640625 25.671875.42071777.7317041.84143555 1.4634082 1.27490234 2.21728516 28.72509766 50.02834682 28.72509766 50.02834682 28.72509766 73.78271484-10.89 0-21.78 0-33 0-1.423125-3.5475-2.84625-7.095-4.3125-10.75-9.69119014-23.52978593-22.81636461-43.94160641-39.12597656-63.37988281-1.42061308-1.70135963-2.8180671-3.41870214-4.20996094-5.14355469-6.70913474-8.19313708-14.12244133-15.68112754-21.6015625-23.1640625-.51978424-.52078125-1.03956848-1.0415625-1.57510376-1.578125-5.87617864-5.87490371-11.81175644-11.63101761-18.17489624-16.984375 0 2.54231457 4.03879855 5.78410811 5.75 7.75 10.25 11.81937799 10.25 11.81937799 10.25 14.25h2c1.48828125 1.7734375 1.48828125 1.7734375 3.3125 4.375.7115625 1.00675781 1.423125 2.01351562 2.15625 3.05078125.39960937.56799316.79921875 1.13598633 1.2109375 1.72119141 1.42768687 2.00372473 2.88645797 3.98197851 4.3515625 5.95849609 7.12993597 9.65637588 13.68440764 19.51279307 19.76806641 29.86035156 1.07480203 1.82091309 2.17332641 3.62777527 3.27490234 5.43261719 4.40129414 7.37417639 8.08370427 14.99392198 11.67578125 22.7890625.46019531.99789551.92039062 1.99579102 1.39453125 3.02392578 8.32687523 18.37435478 8.32687523 18.37435478 6.85546875 22.78857422-69.96 0-139.92 0-212 0 1.12675007-11.26750067 1.12675007-11.26750067 2.3125-15.34765625.26562744-.92087402.53125488-1.84174805.80493164-2.79052734.29124756-.96502442.58249512-1.93004883.88256836-2.92431641.31122803-1.04236816.62245605-2.08473633.94311523-3.15869141 6.76318843-22.25500752 15.60816968-43.63229445 24.52270508-65.08447265 15.20935934-36.6146073 25.56637952-74.97768345 11.53417969-113.69433594-1.27378973-3.02178923-2.60856271-5.96963542-4.08203125-8.8984375-.91796875-2.1015625-.91796875-2.1015625-.91796875-5.1015625z" transform="translate(415 300)"/>
    <path fill="#568f30" d="m0 0h218c1.46193658 2.92387316.90020541 5.29133861.66015625 8.5390625-.09345703 1.30195312-.18691406 2.60390625-.28320313 3.9453125-.10469599 1.38021757-.20951529 2.76042579-.31445312 4.140625-.10142953 1.38798307-.20234739 2.77600364-.30273438 4.1640625-.2482119 3.40404899-.50168999 6.8076244-.75976562 10.2109375 5.51368547-15.33846619 5.51368547-15.33846619 10-31h21c.33.66.66 1.32 1 2-1.01567079 2.76030649-2.10045923 5.38851314-3.3125 8.0625-.54587769 1.2063208-.54587769 1.2063208-1.1027832 2.43701172-11.50523971 24.86843823-28.29712179 45.50618459-50.5847168 61.50048828-.87011719.62648438-1.74023438 1.25296875-2.63671875 1.8984375-26.50046083 17.93752479-60.82239522 23.24888316-92.11328125 18.0390625-26.38071394-6.16991561-48.41702444-19.5955251-67.25-38.9375-.495-.44988281-.99-.89976562-1.5-1.36328125-13.43742243-12.53537324-25.04213551-32.11410117-30.5-49.63671875 0-1.32 0-2.64 0-4z" transform="translate(385 594)"/>

    <g transform="matrix(.1 0 0 -.1 0 1001)" fill="white">
        <path d="m6720 6084c145-136 140-316-15-549-32-48-98-129-147-181l-90-93 30-83c46-126 60-176 80-268 10-46 24-86 31-88s83 67 169 155c325 328 450 543 440 752-6 140-74 229-231 306-77 37-260 95-304 95-7 0 10-21 37-46z"/>
        <path d="m9225 5373c-46-24-66-45-86-88-23-49-24-94-4-143 32-76 88-113 170-113 61 0 102 18 138 60 102 121 17 302-140 301-26-1-61-8-78-17zm165-35c93-64 91-191-3-262-38-28-126-28-164 0-95 70-97 199-4 261 47 32 125 32 171 1z"/>
        <path d="m9240 5210c0-73 3-90 15-90 11 0 15 11 15 40s4 40 15 40c8 0 27-18 41-40 16-24 34-40 46-40 19 0 19 2-5 43-25 43-26 44-6 60 44 38 11 77-67 77h-54zm98 43c-2-12-14-19-36-21-27-3-32 0-32 17s6 21 36 21c28 0 35-3 32-17z"/>
        <path d="m797 4686c-164-59-300-270-257-401 7-22 24-44 44-56 29-17 53-19 312-19h280l17 35c9 20 17 38 17 40 0 3-81 5-179 5-237 0-238 1-174 149 48 113 78 157 115 170 18 6 109 11 210 11h179l15 35c7 19 14 37 14 40s-125 5-277 5c-208-1-288-4-316-14z"/>
        <path d="m1495 4677c-61-29-112-84-120-131-17-88 21-109 212-114 139-4 141-4 156 19 8 13 18 34 22 47 6 20 3 22-32 22-49 0-66 11-61 41 5 37 56 61 126 57l60-3-89-200c-49-109-89-201-89-202 0-2 65-3 144-3h143l89 203 90 202 61 3c46 2 65-1 77-14 34-33-26-84-100-84-36 0-42-3-57-35-9-20-17-41-17-47 0-18 297-5 342 16 47 20 105 70 124 107 21 41 18 92-7 115-20 18-45 19-523 22l-501 2z"/>
        <path d="m2820 4691c-180-55-330-294-265-421 30-57 46-60 353-60h278l17 35c9 20 17 38 17 40 0 3-83 5-184 5-214 0-218 1-198 77 7 25 31 83 53 130 58 122 60 123 290 123h185l17 35c9 20 17 38 17 40 0 8-553 4-580-4z"/>
        <path d="m3350 4468c-56-128-105-239-107-246-4-10 25-12 138-10l142 3 90 203 90 202h88c67 0 91-4 104-16 14-14 14-19 2-38-22-33-57-46-128-46-65 0-65 0-82-35-9-20-17-41-17-46 0-8 55-10 178-7 204 4 238 14 311 93 35 38 41 51 41 89 0 36-5 48-26 65-26 20-38 21-374 21h-347z"/>
        <path d="m4175 4465c-198-130-364-240-369-246-6-5 7-9 37-9 37 0 59 8 108 40l62 40h257 257l27-40 26-40h166 165l-40 78c-23 42-87 151-144 242l-103 165-45 3c-43 3-57-5-404-233zm312-121c-2-3-91-3-197-2l-193 3 139 92 138 92 59-91c32-50 56-92 54-94z"/>
        <path d="m5207 4688c-3-7-51-114-106-237-56-124-101-229-101-233 0-5 64-7 141-6l141 3 91 203 90 202h109c103 0 109-1 103-19-3-11-42-99-85-197-44-98-80-181-80-186s63-7 141-6l140 3 99 221c54 122 101 231 105 243l6 21h-394c-306 0-396-3-400-12z"/>
        <path d="m6097 4693c-3-4-51-111-107-238-56-126-104-233-107-237-2-5 61-8 140-8h145l90 203 90 202 78 3c102 4 124-2 124-32 0-42-34-61-121-65-76-3-80-5-94-32-33-62-33-62 158-57 152 3 178 7 222 27 113 51 167 149 116 212l-19 24-355 3c-196 1-358-1-360-5z"/>
        <path d="m6861 4468c-57-128-105-239-108-245-4-10 27-13 137-13h142l186 180c102 98 188 178 189 176 2-2-30-80-72-175-41-94-75-173-75-176s64-4 142-3l141 3 50 110c27 61 75 170 107 243l58 132h-141-142l-180-164c-99-90-181-162-183-161-2 2 22 61 53 132 32 70 64 143 71 161l14 32h-143-143z"/>
        <path d="m7762 4473c-55-126-104-236-108-246-6-16 3-17 136-15l143 3 47 105 48 105 111 3c61 1 111 1 111-2 0-2-17-42-39-88-65-143-75-129 89-126l142 3 108 243 108 242h-143-142l-41-90-42-90h-109-110l19 45c11 25 29 65 40 90l19 45h-143-143z"/>
        <path d="m8714 4665c-7-19-14-37-14-39 0-3 47-7 104-8l105-3-80-180c-45-99-85-190-90-202l-9-23h143 142l90 203 90 202 113 3 113 3 15 34c8 19 14 37 14 40s-162 5-361 5h-360z"/>
        <path d="m2935 4484c-8-20-15-40-15-45s81-9 180-9h180l20 40c11 21 20 42 20 45s-83 5-185 5h-185z"/>
        <path d="m2360 3963c-60-183-64-343-10-487 129-344 623-531 1205-456 262 33 722 125 748 149 4 4-19 25-50 47-76 51-276 252-333 333-80 114-61 104-179 92-130-14-399-14-516-1-324 37-540 177-573 371l-8 44-125 3-126 3z"/>
    </g>
</svg>
